<?xml version="1.0" standalone="no"?>
<!DOCTYPE svg PUBLIC "-//W3C//DTD SVG 20010904//EN"
 "http://www.w3.org/TR/2001/REC-SVG-20010904/DTD/svg10.dtd">
<svg version="1.0" xmlns="http://www.w3.org/2000/svg"
 width="1024.000000pt" height="1024.000000pt" viewBox="0 0 1024.000000 1024.000000"
 preserveAspectRatio="xMidYMid meet">
<metadata>
Created by potrace 1.11, written by Peter Selinger 2001-2013
</metadata>
<g transform="translate(0.000000,1024.000000) scale(0.100000,-0.100000)"
fill="#000000" stroke="none">
<path d="M2235 9481 c5 -12 3 -12 -12 0 -15 12 -16 12 -10 -3 4 -11 2 -15 -6
-12 -14 5 -39 -44 -30 -59 3 -6 2 -8 -3 -4 -5 3 -18 -2 -29 -10 -19 -15 -19
-15 -1 -9 19 6 19 6 3 -12 -13 -15 -14 -21 -4 -32 6 -7 7 -10 2 -7 -6 3 -17
-3 -24 -15 -10 -16 -10 -19 1 -12 10 6 11 5 1 -8 -7 -8 -10 -18 -6 -21 3 -4 1
-7 -6 -7 -7 0 -9 -5 -6 -10 4 -6 1 -17 -5 -25 -6 -8 -9 -19 -5 -25 3 -5 -1
-10 -10 -10 -9 0 -13 -5 -10 -10 4 -6 12 -8 18 -4 7 3 4 -1 -7 -10 -10 -8 -15
-19 -11 -25 3 -6 0 -11 -7 -11 -9 0 -9 -3 2 -10 14 -9 7 -15 -14 -11 -5 1 -4
-4 3 -12 9 -12 9 -18 -3 -30 -11 -11 -12 -17 -3 -27 8 -9 8 -11 1 -7 -7 4 -15
0 -18 -9 -4 -10 -2 -13 7 -8 9 5 9 4 0 -7 -16 -16 -17 -33 -1 -23 7 4 8 3 4
-4 -4 -7 -15 -12 -24 -12 -15 0 -15 -2 -2 -10 13 -9 13 -10 0 -10 -13 0 -13
-1 0 -10 12 -8 12 -10 1 -10 -9 0 -11 -7 -8 -21 4 -15 2 -19 -9 -15 -10 4 -13
2 -7 -7 11 -17 13 -37 4 -37 -5 0 -8 -12 -7 -27 1 -16 -6 -34 -14 -41 -13 -12
-13 -13 2 -8 15 4 16 2 6 -14 -7 -10 -16 -16 -21 -13 -5 3 -4 -3 1 -14 6 -11
7 -25 2 -33 -5 -8 -6 -19 -2 -25 3 -5 -2 -4 -11 4 -16 13 -17 12 -7 -13 6 -18
6 -25 0 -21 -6 3 -10 -1 -10 -10 0 -10 5 -13 13 -9 8 5 8 3 -2 -9 -7 -9 -18
-14 -25 -10 -8 4 -7 2 1 -7 6 -7 9 -19 6 -26 -3 -8 -1 -14 4 -14 5 0 10 -7 10
-15 0 -12 -3 -12 -16 -2 -12 9 -13 9 -7 0 4 -8 2 -13 -6 -13 -10 0 -9 -3 2
-11 12 -8 12 -12 2 -16 -10 -4 -10 -8 0 -21 11 -13 11 -15 -2 -8 -8 4 -6 1 4
-8 10 -8 22 -13 27 -11 4 3 10 -1 12 -7 4 -8 6 -7 6 4 1 9 6 20 13 24 7 4 8 3
4 -4 -4 -7 -3 -12 3 -12 5 0 13 5 16 11 4 6 14 8 24 4 13 -5 13 -4 4 6 -10 10
-5 17 22 36 19 13 35 29 35 36 0 7 4 6 10 -3 8 -12 10 -10 10 8 0 13 4 21 9
18 5 -3 12 1 15 10 3 9 11 12 18 8 8 -5 9 -2 5 9 -4 11 -1 17 9 17 8 0 13 4
10 9 -3 5 4 11 15 14 13 4 18 10 13 18 -4 8 -3 10 4 5 13 -8 43 5 45 20 1 5 7
8 14 6 6 -1 15 3 19 9 5 8 3 9 -6 4 -8 -5 -11 -4 -7 1 3 5 19 11 36 12 25 2
29 -1 24 -15 -4 -11 -3 -14 5 -9 15 9 16 -6 1 -21 -8 -8 -4 -15 12 -27 13 -9
20 -16 15 -16 -5 0 -3 -7 4 -15 11 -13 10 -15 -6 -10 -16 5 -16 4 2 -7 12 -7
20 -22 19 -35 -1 -13 5 -23 16 -26 12 -3 16 -11 12 -26 -3 -12 -1 -21 6 -21 6
0 11 -5 11 -11 0 -5 -5 -7 -11 -3 -6 3 -4 -5 5 -18 9 -14 13 -28 9 -31 -3 -4
-1 -7 6 -7 8 0 11 -6 7 -16 -4 -11 -2 -15 8 -11 9 4 13 0 11 -11 -1 -9 2 -26
8 -37 9 -17 8 -18 -4 -10 -8 6 -6 2 4 -7 11 -10 14 -18 8 -18 -7 0 -9 -5 -6
-10 4 -6 10 -8 15 -5 4 3 6 -5 2 -17 -4 -16 -2 -19 9 -13 11 7 11 6 -1 -9 -12
-16 -12 -19 2 -27 10 -5 14 -17 11 -29 -3 -12 0 -20 6 -20 7 0 11 -10 9 -22
-2 -14 2 -22 9 -21 9 2 10 -4 3 -22 -6 -16 -6 -27 2 -31 7 -5 8 -3 3 6 -5 9
-4 11 4 6 9 -6 9 -11 0 -22 -9 -11 -8 -15 6 -20 13 -5 14 -9 3 -15 -11 -7 -11
-9 1 -9 7 0 11 -6 7 -15 -3 -8 -1 -15 4 -15 5 0 7 -9 5 -20 -3 -14 2 -20 13
-20 13 0 14 -2 4 -9 -11 -6 -10 -12 5 -26 10 -10 17 -20 16 -22 -2 -2 -3 -12
-3 -24 0 -13 4 -18 12 -13 7 4 8 3 4 -5 -4 -6 -1 -25 8 -41 8 -17 10 -28 5
-25 -5 4 -9 1 -9 -4 0 -6 5 -11 10 -11 6 0 9 -3 9 -7 -1 -5 -1 -15 0 -23 1
-13 2 -13 11 0 5 8 10 10 10 4 0 -5 -5 -15 -12 -22 -9 -9 -9 -12 1 -12 7 0 10
-4 7 -8 -3 -5 1 -21 9 -36 8 -14 10 -24 5 -21 -6 4 -10 1 -10 -4 0 -6 5 -11
10 -11 6 0 10 -12 10 -26 0 -17 4 -23 13 -18 8 5 8 2 -2 -9 -8 -11 -9 -17 -3
-17 7 0 9 -7 5 -17 -5 -11 -3 -14 6 -8 10 5 11 2 6 -14 -4 -13 -2 -21 6 -21 8
0 8 -5 -2 -17 -10 -11 -10 -14 -1 -9 8 5 12 0 12 -15 0 -12 8 -28 18 -36 9 -8
12 -12 5 -9 -8 4 -11 -4 -11 -23 1 -17 5 -28 9 -25 4 2 10 0 14 -6 3 -5 1 -10
-6 -10 -8 0 -8 -4 1 -15 9 -11 10 -15 1 -15 -8 0 -7 -6 3 -16 9 -8 14 -20 11
-25 -4 -5 0 -9 7 -9 9 0 9 -3 -2 -10 -8 -5 -10 -10 -4 -10 10 0 14 -13 15 -53
0 -11 5 -15 12 -10 7 4 5 -2 -3 -12 -12 -15 -12 -17 -1 -10 11 6 13 3 9 -13
-4 -12 -3 -20 2 -17 13 8 19 -22 7 -35 -9 -10 -9 -11 2 -5 11 6 13 4 8 -8 -3
-10 -2 -17 4 -17 5 0 7 -11 5 -25 -3 -16 -1 -23 5 -19 7 4 10 -3 9 -17 -3 -39
-1 -51 10 -44 12 8 13 -5 1 -24 -7 -10 -3 -24 12 -45 11 -16 16 -26 9 -22 -7
4 -12 3 -12 -3 0 -5 8 -12 18 -14 14 -4 14 -5 -3 -6 -15 -1 -17 -4 -7 -10 7
-4 14 -22 14 -39 1 -19 5 -29 11 -25 6 4 8 0 4 -10 -3 -10 -2 -17 2 -17 5 0
12 -7 15 -16 6 -15 4 -15 -10 -3 -16 13 -16 12 -5 -9 6 -12 9 -27 6 -32 -3 -5
0 -12 6 -16 8 -5 9 -3 4 6 -5 9 -4 11 4 6 6 -4 9 -12 5 -17 -3 -5 0 -16 6 -24
8 -10 9 -15 2 -15 -6 0 -2 -16 9 -35 20 -33 20 -35 3 -29 -17 5 -17 4 -4 -8 8
-7 16 -24 18 -38 1 -14 7 -27 13 -28 6 -3 5 -10 -3 -20 -10 -12 -10 -14 0 -8
11 6 18 -18 13 -46 0 -5 4 -8 10 -8 6 0 9 -9 6 -20 -3 -11 -1 -20 3 -20 4 0 6
-9 3 -20 -4 -15 0 -20 13 -21 12 0 14 -3 6 -6 -10 -4 -10 -8 0 -21 10 -12 10
-14 1 -8 -9 5 -11 2 -7 -8 3 -9 11 -16 18 -16 6 0 4 -5 -4 -10 -11 -7 -11 -10
-2 -10 7 0 10 -4 7 -10 -3 -5 -2 -10 4 -10 6 0 7 -7 4 -17 -4 -10 -2 -14 4
-10 7 5 10 -4 9 -24 -1 -17 4 -38 12 -45 11 -11 11 -14 0 -14 -10 0 -10 -2 1
-9 11 -7 11 -9 0 -14 -10 -4 -10 -6 -1 -6 7 -1 12 -14 12 -32 0 -21 4 -28 13
-23 8 5 8 2 -2 -9 -11 -14 -11 -17 0 -17 12 0 12 -2 1 -9 -11 -7 -11 -9 0 -14
9 -3 13 -17 12 -36 -1 -17 3 -31 8 -31 6 0 5 -6 -2 -15 -11 -13 -8 -18 10 -17
3 0 5 -17 4 -39 0 -22 4 -39 10 -39 6 0 4 -5 -4 -10 -8 -5 -10 -10 -4 -10 7 0
15 -7 18 -16 4 -10 2 -13 -7 -8 -6 4 -9 4 -5 -1 4 -4 2 -15 -4 -24 -10 -13
-10 -14 2 -3 19 16 35 16 21 -1 -7 -10 -7 -17 0 -24 8 -8 7 -13 -2 -18 -8 -6
-10 -4 -4 5 5 8 4 11 -3 6 -6 -4 -9 -13 -6 -21 4 -8 11 -12 18 -8 6 4 5 -1 -3
-10 -11 -14 -11 -17 0 -17 11 0 11 -2 -1 -10 -12 -8 -12 -10 -1 -10 10 0 11
-4 3 -13 -13 -15 8 -47 30 -47 8 0 26 -10 39 -23 14 -12 33 -21 43 -19 9 2 25
-3 35 -12 13 -12 20 -13 29 -4 8 8 12 9 12 1 0 -6 9 -9 20 -6 11 3 20 0 20 -6
0 -6 5 -11 11 -11 5 0 8 4 5 8 -3 5 1 9 9 9 8 0 12 -4 9 -9 -7 -12 10 -10 22
2 8 8 15 6 25 -6 8 -10 9 -15 3 -11 -7 4 -15 0 -18 -9 -3 -8 -2 -12 3 -9 5 3
12 1 15 -4 3 -4 -2 -8 -12 -8 -49 0 -58 -3 -42 -14 12 -8 9 -10 -12 -6 -15 2
-27 1 -26 -2 2 -21 -4 -31 -14 -25 -6 4 -16 1 -22 -7 -6 -8 -18 -14 -26 -14
-8 0 -14 -7 -14 -16 1 -11 -6 -15 -23 -13 -14 1 -22 0 -19 -3 3 -3 -2 -12 -12
-20 -9 -8 -11 -11 -3 -7 9 4 12 3 7 -4 -3 -6 -21 -9 -39 -7 -20 3 -27 1 -18
-4 9 -6 10 -11 2 -15 -6 -4 -16 -4 -23 0 -7 4 -8 3 -4 -4 4 -7 2 -12 -4 -12
-6 0 -8 -6 -4 -12 5 -10 4 -10 -6 -1 -11 10 -16 9 -27 -5 -10 -12 -12 -12 -8
-2 7 16 -7 0 -35 -40 -9 -12 -22 -19 -33 -16 -10 2 -14 0 -11 -6 10 -15 -19
-29 -29 -15 -6 8 -7 6 -4 -5 3 -9 -2 -22 -11 -30 -10 -8 -13 -8 -9 -1 4 6 3
14 -2 17 -5 4 -8 -5 -6 -19 2 -19 -1 -23 -10 -15 -9 8 -14 6 -19 -5 -3 -8 -13
-15 -22 -15 -10 0 -15 -3 -11 -6 9 -10 -21 -36 -33 -29 -6 4 -9 3 -8 -2 5 -16
-50 -65 -64 -57 -11 6 -11 5 0 -8 10 -13 10 -17 -3 -22 -11 -4 -14 -2 -9 6 4
7 3 8 -4 4 -7 -4 -12 -14 -12 -22 0 -8 -4 -12 -10 -9 -9 5 -14 -7 -11 -27 0
-4 -8 -5 -19 -3 -11 2 -19 1 -19 -3 3 -19 -2 -33 -10 -28 -5 4 -20 -7 -34 -23
-14 -17 -28 -27 -31 -23 -4 3 -4 -2 0 -12 5 -14 4 -17 -4 -12 -8 4 -12 0 -12
-11 0 -15 -2 -16 -10 -3 -8 13 -10 12 -11 -5 -1 -11 -1 -23 0 -27 0 -4 -6 -5
-14 -2 -11 5 -13 2 -8 -12 4 -12 3 -15 -5 -10 -7 4 -12 2 -12 -4 0 -6 -4 -8
-10 -5 -5 3 -10 1 -10 -5 0 -6 -4 -9 -9 -6 -5 4 -12 0 -14 -6 -3 -7 -6 -4 -6
7 -1 17 -3 17 -11 5 -8 -12 -10 -12 -10 -1 0 11 -3 11 -15 1 -13 -11 -14 -10
-9 4 7 17 -11 23 -21 6 -4 -7 -12 -7 -25 0 -10 5 -28 10 -39 10 -12 0 -21 6
-21 13 0 9 -3 8 -9 -2 -6 -10 -10 -10 -13 -1 -2 7 -20 13 -40 14 -20 0 -34 4
-31 9 2 4 -1 7 -7 7 -6 0 -9 4 -5 9 3 6 -4 8 -15 6 -25 -5 -52 4 -45 15 3 4
-2 11 -11 14 -10 4 -13 2 -9 -7 4 -6 -3 -2 -14 11 -11 13 -25 21 -30 18 -5 -4
-12 3 -16 14 -4 11 -11 18 -16 15 -5 -4 -9 1 -9 10 0 9 -5 13 -10 10 -6 -3
-13 1 -16 9 -3 9 -12 16 -20 16 -8 0 -14 9 -14 20 0 18 -16 26 -43 21 -5 -1
-6 3 -2 9 3 5 1 10 -4 10 -6 0 -11 10 -11 21 0 19 -2 20 -17 8 -11 -10 -14
-10 -9 -1 4 6 2 12 -3 12 -6 0 -11 5 -11 11 0 5 5 7 12 3 7 -5 8 -3 4 5 -5 7
-10 10 -13 7 -3 -3 -16 8 -30 25 -14 16 -31 29 -38 29 -8 0 -17 4 -20 10 -3 6
1 7 12 4 10 -3 6 2 -8 10 -15 8 -29 23 -33 31 -3 9 -10 14 -15 10 -6 -3 -8 4
-6 16 2 12 2 19 -2 16 -8 -9 -43 11 -43 24 0 15 -26 39 -34 31 -4 -3 -4 1 0
11 6 16 -10 25 -19 10 -2 -5 -2 -2 -1 5 2 7 -3 15 -11 18 -8 4 -15 15 -15 26
0 10 -4 16 -10 13 -5 -3 -10 1 -10 10 0 9 -4 13 -10 10 -5 -3 -10 1 -10 9 0 9
-4 16 -10 16 -5 0 -10 7 -10 16 0 9 -5 12 -12 8 -7 -5 -9 -2 -5 9 4 11 2 14
-8 11 -10 -4 -13 0 -10 15 2 14 -1 18 -11 14 -10 -4 -14 2 -14 21 0 20 -4 24
-17 19 -11 -4 -14 -3 -9 5 4 7 3 12 -3 12 -6 0 -8 7 -4 15 3 10 0 15 -8 13 -7
-2 -14 3 -15 10 -1 6 -2 17 -3 22 0 6 -8 10 -17 10 -8 0 -12 5 -9 10 3 6 1 10
-4 10 -6 0 -11 10 -11 23 0 18 -2 19 -10 7 -8 -12 -10 -9 -10 13 0 16 -4 26
-10 22 -9 -6 -14 8 -11 28 0 4 -4 7 -10 7 -6 0 -9 6 -6 14 5 13 -27 49 -36 40
-2 -3 -3 6 -2 20 2 19 -1 23 -13 19 -10 -4 -13 -2 -8 5 3 6 0 15 -9 19 -8 5
-16 21 -17 35 -1 15 -7 24 -12 21 -5 -4 -7 1 -3 10 3 9 0 18 -9 21 -8 3 -14
15 -14 26 0 13 -4 18 -11 15 -6 -4 -9 0 -7 11 2 12 -2 18 -10 16 -8 -1 -10 2
-7 8 4 6 -1 21 -12 33 -16 19 -16 20 0 8 15 -12 17 -12 11 3 -3 9 -12 16 -20
16 -8 0 -11 6 -8 15 3 8 -2 22 -11 31 -9 9 -14 23 -11 31 3 7 -1 16 -9 19 -8
3 -11 12 -8 21 5 12 3 14 -6 8 -10 -5 -11 -2 -7 13 5 14 0 25 -16 37 -13 10
-16 15 -7 12 9 -3 16 1 16 9 0 7 -4 11 -8 9 -3 -3 -13 3 -20 12 -12 14 -12 16
0 9 9 -6 12 -5 9 5 -3 8 -10 13 -16 12 -6 -2 -9 6 -7 17 2 11 -1 20 -6 20 -6
0 -7 5 -4 10 3 6 1 10 -5 10 -6 0 -8 5 -5 10 3 6 0 10 -7 10 -9 0 -9 3 2 10
10 6 11 10 3 10 -7 0 -13 9 -13 21 0 13 -4 18 -12 13 -9 -5 -9 -2 1 9 9 11 10
17 2 17 -6 0 -11 9 -11 20 0 11 -4 20 -9 20 -5 0 -12 7 -15 16 -4 10 -2 13 7
9 6 -4 4 0 -6 8 -14 11 -15 16 -5 20 8 3 5 6 -7 6 -17 1 -17 3 -5 11 11 7 11
10 2 10 -7 0 -11 4 -8 9 4 5 0 12 -6 14 -10 4 -10 6 1 6 9 1 8 6 -6 19 -10 9
-13 13 -6 8 10 -6 12 -4 7 8 -3 9 -10 16 -14 16 -5 0 -6 9 -3 20 3 12 0 20 -7
20 -7 0 -10 7 -6 16 3 8 2 12 -4 9 -6 -3 -10 5 -10 19 0 14 -4 26 -10 26 -5 0
-10 5 -10 11 0 5 5 7 10 4 15 -9 12 4 -4 21 -8 7 -12 23 -9 34 3 11 1 20 -5
20 -5 0 -9 14 -8 30 1 17 -2 30 -7 30 -4 0 -5 5 -2 10 3 6 2 10 -2 10 -5 0 -8
13 -7 30 1 16 -1 29 -5 28 -19 -2 -24 3 -11 12 10 6 11 10 3 10 -7 0 -13 11
-13 25 0 14 -4 25 -10 25 -5 0 -10 5 -10 11 0 5 5 7 11 4 13 -8 -12 37 -26 47
-6 4 -2 8 9 8 15 0 16 3 7 14 -7 8 -13 25 -15 38 -1 13 -6 29 -10 36 -4 7 -2
12 5 12 7 0 5 8 -7 22 -17 19 -17 21 -2 15 22 -8 23 -3 2 17 -12 12 -12 16 -2
16 11 0 11 2 0 9 -12 7 -18 24 -21 54 -1 4 -6 7 -12 7 -5 0 -8 -4 -5 -8 2 -4
-5 -9 -16 -9 -16 -2 -18 1 -9 10 19 19 12 28 -7 10 -11 -10 -17 -21 -15 -25 2
-5 0 -8 -6 -8 -6 0 -8 -6 -5 -14 3 -8 0 -17 -5 -21 -6 -3 -8 -12 -4 -18 11
-18 12 -36 2 -43 -5 -3 -9 -15 -9 -28 0 -12 -6 -28 -13 -35 -7 -8 -7 -11 -1
-8 15 9 14 -55 -1 -65 -6 -5 -5 -8 4 -8 10 0 11 -3 2 -14 -9 -11 -9 -16 0 -21
8 -6 7 -10 -2 -16 -9 -6 -10 -9 -2 -9 12 0 12 -54 0 -66 -4 -4 -2 -13 4 -21 9
-10 8 -13 -2 -13 -10 0 -10 -3 -1 -12 8 -8 8 -17 1 -31 -6 -11 -7 -17 -2 -14
5 3 9 -19 10 -49 0 -34 -3 -51 -10 -47 -6 4 -7 1 -1 -8 5 -8 9 -22 10 -31 1
-10 2 -25 3 -34 1 -9 6 -12 14 -8 9 6 9 4 -1 -7 -14 -15 -17 -33 -4 -25 5 3 9
-1 9 -9 0 -8 -4 -15 -9 -15 -5 0 -6 -6 -1 -12 8 -14 14 -49 13 -85 0 -13 5
-23 11 -23 7 0 7 -6 -2 -17 -8 -9 -9 -14 -3 -10 7 4 14 -2 17 -13 3 -11 0 -20
-6 -20 -7 0 -5 -5 3 -10 8 -5 10 -10 4 -10 -6 0 -11 -7 -11 -15 0 -8 4 -12 9
-9 4 3 8 -4 8 -16 0 -12 -4 -18 -10 -15 -15 9 -12 -2 6 -19 12 -12 12 -16 2
-16 -10 0 -10 -2 1 -9 8 -5 15 -19 16 -30 1 -11 -1 -18 -5 -16 -4 2 -7 -2 -7
-10 0 -8 4 -12 8 -9 4 2 10 0 14 -6 3 -5 1 -10 -5 -10 -6 0 -8 -5 -5 -10 4 -6
12 -8 18 -4 7 3 3 -2 -7 -10 -11 -9 -15 -16 -10 -16 16 0 32 -55 22 -74 -7
-12 -5 -18 7 -22 13 -6 14 -8 3 -15 -10 -7 -9 -9 5 -9 9 0 17 -5 17 -11 0 -5
-6 -7 -12 -3 -9 5 -9 2 1 -9 7 -9 10 -17 6 -17 -4 0 -1 -8 6 -17 8 -9 9 -14 2
-10 -13 8 -12 -18 2 -30 4 -4 5 -2 0 6 -5 10 -4 12 3 7 9 -5 9 -13 1 -28 -8
-15 -8 -19 0 -14 7 5 11 -4 11 -23 0 -20 5 -31 14 -31 8 0 18 -5 22 -12 4 -7
3 -8 -4 -4 -8 5 -12 -2 -12 -19 0 -14 4 -24 9 -21 5 3 9 0 8 -7 -1 -38 4 -58
14 -51 8 4 8 0 0 -15 -9 -16 -9 -21 0 -21 9 0 9 -3 0 -14 -8 -10 -9 -16 -2
-21 6 -3 16 -15 22 -27 9 -16 8 -19 -3 -12 -10 6 -11 5 -1 -8 7 -8 10 -18 6
-21 -3 -4 -1 -7 6 -7 7 0 9 -4 6 -10 -3 -5 -2 -10 3 -10 9 0 11 -8 15 -54 1
-13 5 -22 8 -20 4 2 10 -3 13 -12 4 -9 2 -13 -5 -8 -8 4 -7 0 0 -15 7 -12 9
-26 6 -31 -3 -5 4 -14 15 -20 17 -9 18 -14 9 -32 -8 -15 -8 -18 0 -14 10 6 15
-6 12 -26 0 -5 5 -8 13 -8 8 0 12 -9 11 -25 -2 -14 1 -25 6 -25 5 0 9 -9 9
-21 0 -13 4 -18 13 -13 9 6 9 4 -1 -8 -10 -13 -10 -17 5 -22 13 -6 14 -9 4
-15 -10 -7 -9 -10 3 -14 9 -4 16 -15 16 -26 0 -11 6 -22 13 -24 9 -4 9 -6 -2
-6 -8 -1 -4 -8 10 -21 15 -12 19 -19 10 -20 -10 0 -11 -3 -2 -14 6 -7 10 -20
8 -27 -2 -8 -2 -11 0 -6 9 14 19 7 20 -15 1 -13 7 -24 13 -26 7 -3 7 -9 -2
-20 -7 -9 -8 -13 -3 -10 6 3 16 0 23 -8 8 -9 9 -14 2 -14 -6 0 -8 -5 -5 -10 4
-6 10 -8 15 -5 5 3 12 0 16 -6 4 -8 3 -9 -4 -5 -7 4 -12 1 -12 -8 0 -8 5 -18
12 -22 7 -5 8 -3 3 6 -5 8 -4 11 3 7 5 -4 8 -16 5 -27 -3 -11 0 -20 6 -20 6 0
11 -12 11 -27 0 -22 2 -25 10 -13 7 11 10 8 10 -16 0 -17 7 -37 15 -44 8 -7
12 -16 9 -21 -3 -5 0 -9 6 -9 6 0 8 -4 5 -10 -3 -5 -2 -10 4 -10 6 0 13 -11
17 -25 3 -14 10 -22 15 -19 5 3 9 -4 9 -15 0 -12 5 -21 11 -21 5 0 7 -4 4 -10
-3 -5 -1 -10 4 -10 6 0 10 -6 8 -12 -1 -7 3 -12 10 -11 7 2 10 -6 8 -17 -4
-19 9 -28 18 -12 2 4 2 1 0 -7 -2 -8 6 -20 17 -28 12 -9 19 -21 16 -30 -3 -8
-1 -11 4 -8 9 6 14 -7 11 -27 0 -4 5 -5 13 -2 7 3 21 -7 31 -23 16 -24 16 -26
2 -14 -9 7 -17 9 -17 4 0 -5 12 -15 26 -22 17 -7 24 -17 20 -27 -3 -8 -2 -12
4 -9 6 3 10 -1 10 -9 0 -8 8 -20 18 -25 9 -6 13 -11 8 -11 -4 0 0 -8 11 -17
10 -10 12 -14 3 -8 -9 6 -8 1 4 -13 11 -12 25 -21 31 -18 8 3 10 -5 8 -22 -4
-21 -2 -24 6 -12 9 13 11 13 11 -1 0 -9 10 -21 23 -27 21 -10 21 -11 2 -13
-13 -1 -10 -3 10 -8 17 -3 31 -12 31 -19 1 -6 2 -17 3 -24 0 -6 4 -8 7 -5 10
10 44 -39 45 -65 0 -22 1 -22 9 -3 7 17 9 17 9 3 1 -10 6 -18 11 -18 6 0 10
-6 10 -14 0 -7 8 -20 18 -27 16 -13 16 -13 2 6 -8 11 0 7 18 -10 37 -34 66
-77 41 -60 -8 6 -3 -1 11 -14 14 -13 18 -20 10 -16 -8 3 -5 -2 7 -13 12 -11
19 -22 16 -26 -4 -3 -2 -6 4 -6 6 0 14 -7 17 -16 3 -8 2 -12 -4 -9 -16 10 -12
-7 7 -27 14 -15 14 -18 2 -13 -10 4 -16 0 -16 -9 0 -8 7 -12 16 -9 14 4 14 3
0 -9 -10 -8 -16 -25 -14 -41 2 -15 0 -25 -5 -22 -7 5 -23 -31 -21 -48 1 -4 -6
-10 -15 -14 -13 -5 -13 -7 -2 -14 10 -7 10 -9 1 -9 -8 0 -13 -13 -13 -31 0
-25 -3 -30 -16 -25 -14 5 -15 4 -4 -9 8 -10 9 -15 1 -15 -6 0 -10 -3 -9 -7 1
-5 -4 -19 -11 -32 -9 -17 -10 -21 -1 -16 9 5 8 1 -1 -16 -7 -13 -13 -28 -14
-32 0 -4 -5 -11 -10 -15 -6 -4 -11 -16 -10 -27 0 -11 -9 -28 -20 -37 -13 -11
-15 -17 -7 -18 10 0 10 -4 -2 -16 -9 -8 -16 -26 -16 -39 0 -13 -6 -26 -12 -28
-10 -4 -9 -6 1 -6 9 -1 10 -5 4 -13 -15 -21 -34 -70 -24 -64 5 3 7 -3 4 -15
-5 -16 -8 -18 -15 -7 -7 9 -8 7 -5 -9 3 -13 1 -23 -4 -23 -4 0 -5 -7 -2 -17 4
-11 3 -14 -5 -9 -7 4 -12 2 -12 -3 0 -6 4 -11 8 -11 5 0 9 -7 9 -15 0 -8 -4
-12 -8 -10 -4 3 -10 -2 -13 -11 -9 -23 -8 -26 7 -18 9 6 9 5 0 -8 -7 -8 -10
-18 -6 -21 3 -4 0 -7 -8 -7 -11 0 -11 -2 1 -10 12 -8 12 -10 -5 -10 -17 0 -17
-2 -5 -10 11 -7 12 -12 3 -18 -13 -8 -12 -29 1 -51 6 -10 5 -12 -2 -7 -8 5
-12 -4 -13 -26 -3 -72 -4 -87 -11 -94 -11 -11 -10 -24 3 -24 5 0 7 5 3 12 -5
7 -3 8 6 3 10 -6 9 -11 -5 -22 -12 -8 -14 -13 -6 -13 10 0 11 -3 2 -13 -7 -10
-7 -17 0 -24 8 -8 7 -13 -2 -18 -8 -6 -10 -4 -4 5 5 9 4 11 -3 6 -9 -5 -9 -13
-2 -27 6 -11 8 -24 5 -29 -3 -6 -1 -10 4 -10 6 0 11 -5 11 -11 0 -5 -4 -7 -10
-4 -5 3 -10 1 -10 -4 0 -6 6 -11 13 -11 8 0 7 -4 -3 -10 -10 -6 -11 -10 -2
-10 6 0 12 -9 12 -21 0 -13 -4 -18 -12 -13 -7 4 -5 -2 5 -13 14 -16 15 -22 5
-26 -8 -3 -9 -6 -1 -6 6 -1 9 -10 6 -21 -3 -11 -1 -20 4 -20 5 0 10 -6 10 -12
1 -23 8 -43 18 -50 6 -5 5 -8 -3 -8 -10 0 -9 -4 2 -16 9 -8 14 -19 11 -24 -3
-5 1 -11 7 -14 11 -5 11 -7 0 -12 -17 -8 -5 -24 13 -17 11 4 13 1 9 -12 -6
-14 -1 -16 32 -14 22 2 45 0 52 -5 7 -4 12 -4 12 1 0 4 5 1 10 -7 5 -8 10 -10
10 -5 0 6 10 11 23 11 46 3 65 8 61 16 -3 4 6 8 20 8 35 0 57 10 49 24 -4 6 1
5 11 -3 9 -8 16 -10 15 -5 -4 21 2 28 11 14 8 -13 10 -13 10 2 0 9 5 20 12 24
7 5 8 3 3 -5 -6 -10 -3 -11 14 -2 12 7 26 9 31 6 5 -3 7 4 5 15 -3 17 -1 18
15 10 13 -7 19 -6 24 6 3 9 12 14 19 11 6 -2 18 3 25 12 8 9 11 11 8 4 -4 -7
1 -11 13 -10 11 0 17 5 15 9 -3 4 7 8 21 8 22 0 26 4 20 17 -5 14 -4 15 6 6
10 -10 15 -9 26 5 10 12 12 12 8 2 -6 -13 -5 -13 7 0 7 8 20 15 28 15 8 0 14
5 13 12 -2 7 3 10 11 7 8 -3 17 -1 21 5 3 6 15 11 26 11 11 0 18 4 15 9 -3 5
8 8 25 7 23 -2 33 3 39 18 6 14 9 16 10 6 0 -13 2 -13 9 0 6 8 7 19 3 25 -3 5
3 3 13 -5 10 -8 16 -10 12 -4 -4 7 0 15 9 18 10 4 13 2 9 -7 -4 -6 3 -1 14 13
11 14 21 19 21 13 0 -7 5 -13 11 -13 5 0 7 5 4 10 -6 10 7 14 34 10 9 -1 12 4
7 16 -4 10 -4 15 0 11 4 -4 13 -2 20 4 8 7 14 7 19 -1 3 -5 12 -10 18 -10 8 0
8 3 -1 9 -10 6 -9 11 4 22 16 12 17 12 9 -1 -8 -13 -7 -13 8 -1 9 7 17 10 17
5 0 -4 7 1 16 12 8 10 13 13 9 7 -4 -9 -1 -11 9 -7 9 3 16 12 16 20 0 8 5 14
11 14 5 0 7 -6 3 -13 -6 -9 -5 -9 8 0 8 7 19 9 23 5 5 -4 5 -1 1 6 -4 6 -4 12
1 13 4 0 18 2 30 3 12 1 20 -1 17 -6 -3 -4 2 -8 11 -8 10 0 13 -5 9 -12 -5 -8
-2 -9 10 -5 14 5 15 3 6 -13 -13 -24 -13 -33 0 -25 6 3 10 -3 10 -15 0 -12 7
-28 15 -37 8 -8 13 -19 10 -24 -4 -5 -1 -9 5 -9 6 0 8 -5 5 -10 -3 -6 1 -13
10 -16 13 -6 14 -8 3 -15 -10 -7 -10 -9 0 -9 6 0 12 -9 12 -21 0 -11 5 -17 10
-14 6 3 11 1 11 -4 1 -6 3 -15 4 -21 1 -5 3 -14 4 -20 0 -5 6 -10 12 -10 5 0
7 5 3 12 -4 7 -3 8 4 4 6 -4 8 -14 5 -23 -4 -9 1 -19 11 -25 14 -8 15 -12 5
-24 -10 -12 -8 -16 9 -21 20 -5 27 -15 23 -36 -1 -5 3 -6 9 -2 5 3 10 1 10 -5
0 -17 26 -40 36 -32 5 4 3 0 -4 -10 -10 -12 -10 -18 -1 -24 8 -5 9 -3 4 6 -6
9 -4 11 5 5 10 -6 8 -12 -8 -25 -12 -10 -18 -20 -15 -24 3 -3 -2 -8 -11 -12
-9 -3 -14 -9 -11 -13 2 -4 -2 -8 -10 -8 -8 0 -11 5 -8 10 4 6 0 8 -10 4 -9 -3
-16 -3 -16 1 3 19 -2 23 -16 12 -9 -8 -15 -9 -15 -2 0 6 -9 9 -20 7 -11 -2
-27 3 -35 11 -11 11 -15 12 -15 3 0 -7 -6 -4 -15 7 -8 10 -15 14 -15 7 0 -6
-9 -9 -22 -5 -15 4 -19 2 -14 -7 6 -9 2 -9 -13 1 -18 11 -23 11 -30 -1 -5 -8
-10 -9 -12 -2 -2 5 -9 -1 -16 -14 -6 -14 -7 -23 -2 -19 13 8 11 -10 -3 -25
-10 -11 -10 -13 0 -7 14 9 17 -10 2 -19 -6 -4 -8 -10 -6 -14 3 -3 -4 -7 -15
-7 -10 0 -19 4 -19 8 0 4 -7 5 -15 2 -8 -4 -12 -11 -8 -17 4 -6 1 -7 -8 -1 -8
4 -35 9 -60 9 -37 0 -46 -2 -41 -14 4 -10 1 -13 -11 -8 -9 3 -17 2 -17 -3 0
-5 -9 -7 -21 -5 -14 3 -19 0 -16 -9 3 -7 -1 -13 -8 -13 -7 0 -11 7 -8 16 2 9
-2 6 -9 -7 -8 -12 -17 -19 -21 -16 -4 4 -7 -2 -7 -14 0 -11 -5 -24 -10 -27
-13 -8 6 -35 23 -35 6 0 2 7 -9 15 -10 8 -14 15 -7 15 6 0 15 -5 18 -10 4 -6
11 -8 16 -5 5 3 6 0 3 -8 -3 -8 2 -14 11 -14 10 0 14 6 10 16 -3 9 4 5 15 -8
11 -13 20 -18 20 -12 0 7 4 10 9 6 5 -3 12 -1 16 4 3 6 -3 8 -15 6 -11 -2 -20
1 -20 7 0 5 6 8 14 5 8 -3 17 -3 20 1 11 10 46 12 46 3 0 -6 -9 -8 -20 -6 -12
2 -18 0 -15 -6 4 -5 11 -7 16 -4 5 4 9 1 9 -4 0 -6 5 -11 11 -11 5 0 7 5 4 10
-3 6 -2 10 4 10 6 0 9 6 7 13 -1 6 -1 9 1 4 3 -4 10 -4 15 -1 7 4 8 2 4 -4
-10 -16 7 -15 23 0 11 11 12 10 6 0 -8 -16 26 -13 37 3 11 14 10 -6 -1 -23 -9
-14 -32 -13 -43 3 -5 6 -8 5 -8 -4 0 -11 -3 -11 -15 -1 -10 9 -15 9 -15 1 0
-6 5 -11 11 -11 5 0 7 -5 3 -12 -5 -7 -3 -8 6 -3 10 6 12 4 7 -8 -3 -10 -2
-17 3 -17 6 0 10 6 10 13 0 7 10 13 23 14 21 2 21 1 3 -13 -11 -8 -15 -14 -10
-14 6 0 16 6 23 12 11 11 13 10 8 -5 -4 -10 -3 -16 1 -14 8 6 33 -19 26 -25
-2 -3 3 -5 11 -5 11 0 12 4 5 11 -15 15 -12 30 4 17 10 -8 16 -9 21 -1 3 5 11
10 17 10 6 0 5 -6 -3 -16 -10 -13 -10 -17 1 -24 8 -5 18 -6 22 -4 4 3 8 0 8
-7 0 -7 3 -9 6 -6 4 4 1 13 -6 22 -7 8 -8 15 -2 15 23 0 32 -26 16 -51 l-16
-24 22 25 c23 25 77 40 63 17 -4 -7 0 -6 10 2 10 8 17 9 17 3 0 -6 -5 -14 -10
-17 -6 -3 -10 -12 -10 -18 0 -7 8 0 18 16 10 15 22 24 25 21 4 -4 1 -14 -6
-23 -11 -14 -10 -14 6 -2 14 12 22 12 41 1 29 -15 48 -6 39 18 -6 15 -5 15 10
3 14 -11 15 -17 5 -30 -12 -14 -11 -14 5 -2 16 13 16 15 1 32 -10 11 -12 19
-6 19 6 0 17 -9 25 -21 15 -20 35 -10 22 11 -3 6 0 13 8 16 16 6 19 33 5 51
-5 7 -5 14 2 18 6 4 9 1 8 -7 -2 -7 3 -12 10 -10 6 1 11 -3 10 -9 -2 -6 3 -14
10 -16 8 -3 10 1 5 14 -4 11 4 6 21 -12 23 -25 26 -27 21 -9 -3 14 0 24 8 27
17 6 44 -9 34 -20 -5 -4 -12 -1 -16 6 -6 9 -11 10 -15 2 -4 -6 -3 -11 1 -11
12 0 14 -42 3 -55 -6 -8 -4 -18 6 -31 15 -18 15 -18 5 2 -10 21 -6 34 10 34 5
0 6 -8 3 -17 -5 -15 -4 -16 5 -3 10 13 12 13 22 0 9 -13 10 -12 5 3 -5 15 -2
17 13 12 11 -3 22 -1 26 5 3 5 11 10 17 10 6 0 3 -9 -7 -20 -10 -11 -15 -20
-10 -20 4 0 16 9 25 20 11 13 21 17 25 10 3 -5 4 -10 0 -10 -3 0 -1 -9 5 -20
6 -11 16 -20 23 -19 9 0 9 2 0 6 -18 7 -16 20 2 20 8 0 15 -4 15 -9 0 -5 4 -6
10 -3 6 3 10 1 10 -4 0 -6 -4 -11 -10 -11 -5 0 -10 -4 -10 -10 0 -17 18 -11
24 8 4 10 13 19 21 19 16 0 20 -12 8 -20 -5 -2 -3 -3 3 -1 15 3 58 -36 49 -44
-3 -4 -10 0 -15 8 -6 9 -10 10 -10 3 0 -23 22 -25 46 -2 28 26 32 16 7 -15
-17 -20 -17 -20 1 -6 23 18 48 22 43 7 -3 -7 -10 -11 -16 -9 -16 3 -26 -27
-13 -40 8 -8 9 -4 5 12 -6 22 -6 22 23 5 16 -9 21 -11 12 -3 -17 14 -17 16 0
32 23 20 32 20 32 0 0 -8 -4 -12 -10 -9 -5 3 -10 1 -10 -5 0 -7 7 -9 16 -6 9
3 17 6 20 6 2 0 0 8 -3 18 -6 15 -5 15 10 3 26 -21 32 -6 9 23 -16 21 -21 23
-26 11 -3 -8 -11 -15 -18 -14 -10 0 -10 2 -1 6 7 2 13 9 13 15 0 6 -7 4 -17
-3 -9 -8 -14 -9 -11 -4 4 6 -2 12 -13 12 -18 2 -18 0 3 -17 26 -22 13 -27 -16
-5 -10 8 -15 19 -10 26 5 8 3 10 -6 4 -9 -6 -11 -4 -5 4 6 10 3 11 -15 1 -13
-7 -20 -8 -16 -2 3 6 2 13 -3 16 -5 3 -11 -4 -14 -15 -5 -20 -27 -18 -27 2 0
6 5 7 10 4 6 -3 10 -2 10 4 0 5 -4 13 -10 16 -5 3 -10 1 -10 -5 0 -7 -7 -5
-16 4 -19 19 -28 21 -19 4 4 -7 0 -5 -8 4 -8 10 -17 15 -20 11 -4 -3 1 -12 11
-20 10 -9 11 -12 2 -7 -27 13 -50 36 -44 45 3 5 0 9 -5 9 -6 0 -11 -6 -11 -12
0 -9 -4 -8 -10 2 -8 12 -10 12 -10 1 0 -11 -3 -11 -15 -1 -12 10 -15 10 -15
-1 0 -9 -4 -7 -12 4 -13 16 -41 10 -39 -9 1 -5 -3 -9 -9 -9 -5 0 -10 4 -9 9 0
5 -5 12 -11 16 -9 5 -6 10 9 15 12 3 19 11 15 16 -3 6 4 5 16 -3 19 -11 23
-10 40 9 10 13 20 23 22 23 9 0 5 -35 -5 -47 -6 -9 -6 -13 1 -13 12 0 34 25
27 32 -3 2 2 5 10 5 18 0 20 -17 3 -18 -7 0 -3 -5 10 -11 12 -6 22 -15 22 -21
0 -5 7 -4 15 3 12 10 18 10 29 1 11 -10 17 -8 25 6 6 10 11 13 11 6 0 -6 -5
-15 -10 -18 -5 -3 -10 -11 -10 -17 0 -6 6 -5 16 3 13 11 17 11 25 -3 6 -11 19
-14 49 -11 22 2 40 0 40 -6 0 -5 -10 -7 -22 -4 -23 4 -23 4 -3 -12 18 -14 21
-14 32 2 7 9 13 12 13 5 0 -6 7 -9 15 -6 8 4 15 1 15 -6 0 -9 4 -9 16 1 15 12
14 14 -7 21 l-24 7 25 -2 c17 -1 24 -7 22 -18 -2 -13 5 -16 35 -14 21 2 30 1
21 -2 -24 -6 -23 -19 2 -19 11 0 23 8 26 18 7 24 21 23 29 -2 4 -11 11 -18 16
-14 5 3 7 10 4 15 -4 5 -2 9 3 9 5 0 15 -11 22 -25 7 -13 17 -22 22 -19 5 3 3
12 -3 21 -10 12 -10 16 1 23 16 10 30 4 30 -13 0 -8 -3 -8 -9 2 -6 9 -11 10
-15 3 -7 -12 29 -36 57 -38 10 -1 16 4 14 10 -2 6 -13 10 -23 8 -16 -2 -17 -1
-4 7 22 15 26 14 38 -15 7 -14 8 -23 3 -20 -5 3 -11 -1 -14 -8 -4 -10 1 -14
14 -13 10 1 19 5 19 10 0 4 4 6 9 2 5 -3 12 -1 16 5 3 5 -1 10 -9 10 -16 0
-20 11 -17 39 2 8 -2 10 -10 5 -8 -4 -10 -3 -5 5 10 15 29 3 22 -15 -3 -7 4
-18 15 -24 11 -6 17 -15 14 -21 -13 -20 25 -8 39 13 9 12 16 17 16 11 0 -6 -7
-16 -15 -23 -19 -15 -14 -23 9 -14 9 3 16 13 16 22 0 8 3 13 6 9 9 -9 -6 -48
-17 -42 -5 4 -9 2 -9 -4 0 -19 25 -18 36 2 10 18 12 18 34 -12 21 -31 23 -31
41 -15 16 14 17 19 5 28 -10 8 -11 17 -5 31 l9 20 -3 -20 c-1 -11 4 -25 13
-32 13 -10 12 -14 -8 -32 -14 -11 -31 -17 -40 -14 -9 4 -14 3 -10 -2 4 -4 3
-14 -3 -22 -8 -9 -8 -13 -1 -13 6 0 13 4 17 10 3 5 13 6 22 3 12 -5 14 -3 8 8
-4 8 -5 11 -1 8 4 -4 18 4 31 17 13 13 30 24 37 24 7 0 1 -8 -14 -17 -15 -9
-32 -27 -39 -40 -11 -20 -10 -25 7 -37 22 -17 27 -15 18 8 -3 9 -11 13 -17 9
-5 -3 -8 -2 -5 3 4 5 25 8 47 8 59 -2 63 -3 56 -14 -3 -5 1 -10 10 -10 9 0 13
4 10 10 -4 6 1 7 12 3 16 -6 16 -5 4 10 -9 11 -10 17 -2 17 6 0 11 -4 11 -10
0 -5 6 -7 14 -4 8 3 12 13 9 25 -3 10 -3 19 0 19 2 0 7 -9 10 -20 7 -26 -50
-63 -87 -56 -23 4 -26 2 -22 -19 5 -26 -7 -38 -38 -40 -17 -2 -17 0 -3 10 14
10 13 13 -6 25 -21 12 -21 12 -7 -6 14 -17 13 -18 -1 -7 -9 7 -19 10 -22 6 -4
-3 -7 -1 -7 5 0 7 -3 11 -8 11 -19 -3 -33 2 -27 10 3 6 -4 15 -15 21 -11 6
-18 15 -15 21 4 5 1 9 -4 9 -6 0 -11 -5 -11 -11 0 -5 -4 -8 -9 -4 -5 3 -15 -1
-23 -8 -11 -10 -16 -9 -32 7 -13 13 -15 18 -4 14 8 -3 15 -1 15 6 0 6 -8 12
-18 12 -10 0 -15 -5 -12 -10 3 -5 1 -6 -6 -2 -6 4 -9 12 -6 17 3 5 -2 6 -12 3
-15 -6 -15 -4 2 10 16 13 17 15 3 10 -10 -3 -18 -1 -18 5 0 6 5 10 11 9 6 -2
14 3 16 10 4 11 1 12 -17 2 -12 -6 -19 -17 -17 -24 3 -6 -4 -13 -14 -13 -22
-2 -45 32 -29 42 5 3 10 11 10 18 0 6 -7 2 -16 -9 -8 -10 -13 -14 -9 -7 3 8
-1 11 -15 8 -11 -2 -20 1 -20 6 0 6 -5 7 -11 3 -8 -4 -7 -9 2 -15 8 -5 9 -9 4
-9 -6 0 -17 6 -25 13 -12 10 -12 9 0 -8 12 -17 12 -18 0 -7 -8 6 -18 12 -24
12 -5 0 -1 -7 10 -15 14 -11 15 -14 3 -9 -26 9 -28 -9 -3 -32 21 -20 23 -21
27 -3 4 13 12 17 28 14 25 -5 61 -35 42 -35 -7 0 -14 4 -18 9 -3 6 -14 9 -25
8 -10 -1 -17 -4 -14 -8 2 -4 -5 -14 -16 -22 -20 -14 -19 -14 5 -27 13 -7 22
-17 19 -21 -8 -14 15 -20 33 -9 15 9 14 10 -6 4 -15 -4 -21 -2 -17 4 4 6 -3
16 -14 22 -17 9 -19 14 -9 26 18 22 58 9 96 -33 19 -21 32 -32 28 -25 -3 6 -2
12 3 12 16 0 22 -13 11 -27 -9 -9 -8 -13 0 -13 6 0 11 5 11 10 0 6 7 10 15 10
18 0 19 12 3 28 -8 8 -8 12 -1 12 14 0 34 -25 26 -33 -3 -4 -1 -7 6 -7 8 0 11
7 7 18 -5 14 -3 13 9 -3 9 -11 23 -20 32 -20 9 0 18 -6 21 -14 3 -9 0 -11 -8
-6 -8 5 -11 4 -7 -2 4 -6 -1 -17 -10 -24 -14 -12 -15 -11 -9 9 4 12 4 22 -1
23 -4 0 -19 2 -33 4 -25 3 -50 -10 -50 -26 0 -5 5 -9 10 -9 6 0 9 5 8 11 -2 6
3 14 10 16 7 3 10 -1 6 -10 -3 -8 0 -18 5 -22 6 -3 8 -12 5 -18 -4 -7 -4 -9 1
-5 4 4 14 0 21 -10 7 -9 14 -12 14 -6 0 6 -9 19 -20 29 -11 10 -20 23 -20 28
0 6 10 1 23 -10 12 -11 28 -18 35 -16 7 3 12 1 11 -4 -4 -25 1 -37 12 -26 14
14 73 -12 64 -27 -4 -6 -1 -10 4 -10 14 0 14 17 2 25 -13 7 -10 46 3 42 5 -2
10 -13 11 -25 2 -23 15 -44 15 -23 0 8 5 7 16 -3 8 -9 20 -14 25 -11 5 4 9 2
9 -4 0 -15 -18 -23 -25 -11 -3 5 -10 10 -14 10 -12 0 -55 -39 -49 -45 2 -3 14
5 27 16 17 16 25 18 36 9 8 -6 16 -7 19 -2 3 5 17 10 31 10 20 0 23 -3 14 -14
-6 -7 -17 -10 -25 -7 -8 3 -14 0 -14 -6 0 -6 3 -10 8 -10 19 3 33 -2 28 -10
-7 -11 20 -22 38 -15 7 3 25 -9 40 -27 20 -23 30 -29 35 -20 11 17 5 62 -9 71
-8 5 -7 9 5 14 21 8 25 8 24 -2 -3 -19 2 -33 10 -28 5 3 15 -2 22 -11 12 -14
11 -15 -9 -9 -14 5 -22 3 -22 -4 0 -6 4 -8 10 -5 6 3 10 1 10 -4 0 -6 -4 -11
-10 -11 -5 0 -12 -10 -15 -23 -6 -23 -47 -37 -42 -14 1 6 -9 13 -23 14 -24 2
-24 2 -2 -5 13 -4 23 -12 22 -17 -1 -21 42 -12 50 10 12 32 29 40 46 23 13
-13 13 -16 -2 -29 -16 -12 -17 -12 -11 3 3 10 2 18 -3 18 -13 0 -13 -27 -1
-35 5 -3 16 1 24 9 8 8 18 12 23 8 5 -4 3 0 -4 9 -10 13 -7 16 20 16 l31 0
-32 -29 c-18 -16 -31 -32 -28 -35 3 -2 19 10 36 28 17 18 35 29 39 25 4 -4 -6
-19 -23 -32 -20 -17 -23 -22 -10 -17 18 6 18 5 6 -10 -9 -11 -10 -17 -2 -17 6
0 11 5 11 10 0 6 7 10 15 10 7 0 18 8 24 17 5 10 13 14 17 10 4 -4 2 -13 -4
-19 -7 -7 -12 -17 -12 -22 0 -6 5 -3 11 6 5 10 17 15 27 12 13 -5 14 -4 3 4
-11 8 -9 12 9 22 20 11 22 10 17 -4 -4 -10 1 -24 12 -35 18 -18 19 -18 20 18
0 20 1 43 2 53 0 9 7 15 15 14 17 -3 50 -46 35 -46 -5 0 -14 7 -19 16 -8 15
-10 15 -16 -1 -8 -22 2 -38 20 -31 14 5 29 -9 17 -17 -5 -2 -2 -2 5 -1 7 2 15
-3 19 -11 4 -12 9 -13 19 -4 11 9 14 9 14 0 0 -6 -7 -14 -15 -17 -8 -4 -15
-11 -15 -17 0 -5 8 -2 19 7 17 16 19 16 25 0 4 -9 9 -14 13 -11 3 4 0 13 -6
21 -18 21 -21 64 -5 77 10 8 12 3 11 -28 -1 -26 2 -38 11 -38 8 0 20 -9 28
-20 12 -17 16 -18 24 -5 5 8 6 18 3 24 -4 5 1 7 10 3 9 -3 19 -2 22 3 4 6 12
10 18 10 7 -1 1 -10 -12 -20 -13 -11 -20 -20 -15 -20 4 0 -1 -7 -12 -15 -10
-8 -14 -15 -7 -15 6 0 21 14 33 30 12 17 26 30 31 30 6 0 1 -13 -11 -30 -12
-16 -18 -30 -13 -31 4 0 -1 -5 -12 -10 l-20 -9 20 3 c11 1 21 8 21 15 3 25 6
26 15 7 7 -16 8 -14 4 9 -6 26 -4 28 9 17 11 -9 16 -10 16 -2 0 6 -5 11 -11
11 -5 0 -7 5 -3 12 5 8 13 5 25 -10 9 -12 21 -22 25 -22 4 0 -1 9 -11 20 -10
11 -13 20 -7 20 6 0 14 -4 17 -10 8 -13 25 -13 25 0 0 6 -5 9 -11 8 -6 -2 -13
2 -16 8 -5 14 29 13 39 0 4 -6 14 -4 24 5 16 13 17 12 11 -4 -4 -10 -7 -21 -7
-23 0 -3 -4 -3 -9 0 -4 3 -17 -4 -27 -15 -16 -18 -16 -19 -1 -13 9 3 17 10 17
14 0 5 14 7 32 5 28 -4 29 -3 13 9 -17 12 -17 14 4 28 14 10 19 21 15 33 -6
15 -5 15 14 4 15 -10 18 -16 9 -21 -12 -8 3 -12 30 -9 6 1 18 -8 26 -19 13
-19 15 -20 21 -3 4 9 4 14 0 11 -3 -4 -11 -2 -18 3 -6 5 -20 17 -31 25 -16 12
-16 14 -3 10 10 -3 20 -1 23 4 7 11 45 9 45 -3 0 -5 -7 -7 -15 -4 -8 4 -17 1
-21 -5 -4 -6 -3 -8 4 -4 6 3 16 -7 23 -23 7 -16 17 -27 23 -24 5 3 6 1 2 -5
-4 -6 -1 -22 6 -34 15 -28 19 -50 8 -43 -4 3 -10 -2 -13 -10 -4 -9 -1 -12 9
-8 17 6 19 -8 2 -25 -9 -9 -7 -11 9 -8 24 5 25 -12 3 -40 -14 -16 -13 -16 9
-5 13 7 21 8 17 3 -3 -6 -2 -13 4 -17 5 -3 10 -2 10 3 0 8 15 12 55 13 10 0
25 5 32 11 11 8 12 7 7 -8 -6 -16 -5 -17 7 -6 7 6 26 12 42 12 20 0 26 4 21
13 -5 7 -1 6 10 -3 16 -13 20 -12 32 5 13 17 18 14 15 -10 -1 -5 6 -1 14 9 13
17 19 15 17 -5 -1 -3 5 -6 12 -6 7 0 13 6 13 13 0 7 -4 11 -8 9 -4 -3 -9 1
-12 8 -3 7 4 12 18 12 13 0 23 -2 23 -5 -1 -20 4 -30 12 -25 6 4 8 11 5 16 -4
5 1 9 10 9 9 0 13 -4 10 -10 -3 -6 1 -7 10 -4 9 4 14 13 10 22 -4 11 -2 12 8
4 10 -9 17 -8 25 0 7 7 12 8 12 2 0 -6 7 -11 15 -11 10 0 12 4 5 12 -8 9 -3
11 16 7 20 -4 25 -2 19 8 -5 9 -4 11 4 6 6 -4 9 -12 6 -17 -11 -16 7 -9 21 9
8 10 13 12 14 5 0 -7 5 -13 11 -13 5 0 7 6 3 12 -6 11 -4 11 7 0 18 -17 42
-15 36 2 -4 11 -1 13 10 9 12 -5 14 -3 8 7 -5 8 -4 11 3 6 6 -4 9 -12 6 -20
-3 -7 2 -13 10 -13 8 0 12 6 9 13 -2 6 1 15 7 19 6 3 10 3 9 -2 -5 -29 2 -36
17 -17 8 10 13 14 10 8 -3 -7 1 -14 9 -17 9 -4 12 -1 9 7 -3 8 0 17 7 22 7 4
10 3 6 -3 -4 -6 0 -13 8 -17 9 -3 15 0 15 10 0 8 4 13 10 9 5 -3 7 -13 4 -23
-4 -12 -3 -13 3 -4 6 8 23 11 48 7 33 -4 36 -3 21 8 -15 11 -13 13 21 12 21 0
44 -4 52 -9 10 -7 12 -6 6 4 -6 10 -4 12 8 7 9 -3 19 -1 23 5 4 6 3 8 -4 4 -6
-3 -14 -1 -18 6 -4 7 -4 10 1 6 4 -4 15 -2 23 5 13 9 14 9 8 0 -4 -8 -2 -13 4
-13 6 0 8 -5 4 -12 -4 -7 -3 -8 5 -4 6 4 9 12 6 17 -4 5 -1 9 4 9 6 0 11 -4
11 -10 0 -5 5 -10 11 -10 5 0 7 5 3 11 -5 8 3 10 25 7 17 -2 31 -1 31 4 0 4 5
8 11 8 5 0 7 -6 4 -12 -4 -7 0 -4 9 6 8 10 13 24 9 29 -4 6 0 8 11 4 14 -5 15
-3 6 13 -5 10 -7 27 -3 37 6 16 5 17 -12 3 -17 -14 -17 -13 -10 9 6 19 4 23
-8 18 -11 -4 -14 -2 -10 8 3 8 9 12 14 9 5 -3 9 0 9 6 0 7 7 9 16 6 10 -4 13
-2 8 6 -5 7 1 9 20 6 19 -4 24 -2 16 7 -7 8 -5 12 5 12 8 0 15 -5 15 -10 0 -6
12 0 27 14 14 13 23 19 19 12 -3 -6 -2 -15 4 -18 6 -4 9 -1 8 6 -2 7 6 14 17
15 27 2 76 29 68 37 -3 4 -1 7 5 7 5 0 12 -5 14 -11 2 -5 11 -7 21 -4 9 4 14
12 10 19 -4 6 1 5 10 -3 15 -12 17 -12 11 4 -6 15 -4 16 16 5 20 -11 22 -10
17 4 -4 11 -3 15 4 11 5 -4 17 -1 26 7 12 9 15 9 9 1 -5 -9 -2 -11 8 -7 9 3
16 10 16 16 0 5 5 6 11 2 6 -3 15 0 20 7 8 12 11 12 19 -1 8 -13 10 -13 10 2
0 23 20 34 31 17 7 -11 9 -10 9 4 0 21 40 39 57 25 7 -6 14 -5 19 3 5 8 3 9
-6 4 -9 -5 -11 -4 -6 3 4 7 14 12 22 12 9 0 12 -5 8 -12 -5 -7 -3 -8 5 -4 7 5
10 14 8 20 -3 7 1 13 9 13 7 0 11 -4 8 -9 -3 -5 9 0 27 11 24 15 37 17 50 10
15 -8 17 -6 12 8 -5 13 -3 15 11 10 9 -4 15 -3 11 2 -3 5 1 11 7 14 10 3 10 9
0 27 -8 12 -9 20 -4 16 5 -3 9 8 8 23 -1 16 -5 29 -11 28 -5 -1 -9 6 -7 15 2
10 -1 18 -7 18 -5 0 -8 6 -7 13 3 24 18 38 33 32 14 -5 14 -3 2 12 -11 13 -11
15 -1 9 8 -5 18 -1 26 10 7 9 20 15 28 11 10 -3 15 0 14 11 0 9 5 16 12 14 6
-1 11 1 11 5 -3 20 2 34 11 28 9 -5 14 7 12 26 -1 4 6 6 16 5 11 -1 17 6 17
21 0 12 5 26 9 30 5 4 6 2 2 -5 -4 -6 -3 -12 3 -12 6 0 15 9 21 20 6 11 15 18
21 15 5 -4 9 -1 9 5 0 6 4 8 10 5 6 -4 7 1 3 11 -4 11 -2 15 4 11 5 -4 19 0
29 8 18 15 18 15 -1 9 -19 -5 -19 -5 -2 6 10 6 26 9 35 5 13 -5 14 -3 5 6 -9
9 -9 15 2 25 7 8 19 14 25 14 7 0 10 7 6 15 -3 8 -2 14 2 14 23 -4 42 2 37 11
-4 6 7 15 24 21 17 6 29 15 26 19 -7 12 21 20 34 9 8 -6 8 -5 1 3 -17 20 -11
31 14 26 17 -3 23 0 22 11 0 8 6 16 14 16 8 0 15 7 14 16 -1 9 5 16 12 16 7 0
11 -5 8 -11 -3 -6 2 -2 11 9 9 11 21 19 26 17 6 -1 8 2 4 8 -5 8 -11 7 -21 -1
-12 -10 -13 -9 -8 5 5 14 24 21 47 17 5 -1 6 3 2 8 -3 6 -12 7 -21 4 -19 -7
-57 32 -49 50 4 6 -1 3 -11 -8 -12 -15 -15 -16 -11 -3 8 22 -3 31 -20 16 -11
-9 -12 -7 -7 7 5 11 4 16 -3 12 -5 -3 -10 0 -10 7 0 7 10 19 21 26 19 12 20
12 7 -4 -8 -9 -11 -20 -7 -24 4 -4 12 2 18 12 8 15 12 16 19 5 4 -7 11 -11 14
-7 4 3 -4 16 -17 28 -13 13 -17 20 -10 16 7 -4 21 -2 30 6 15 11 15 11 5 -2
-7 -10 -8 -21 -3 -30 5 -8 7 -17 4 -21 -2 -4 0 -10 6 -14 5 -3 10 -1 10 4 0 6
7 11 16 11 9 0 12 5 8 12 -4 7 2 4 14 -6 12 -11 22 -14 22 -8 0 6 -4 13 -9 16
-5 4 -8 14 -6 24 1 9 -3 24 -9 32 -9 13 -9 13 6 2 9 -7 15 -22 13 -33 -5 -24
27 -43 44 -26 9 9 14 9 21 -3 5 -8 12 -11 16 -8 4 4 -1 19 -10 33 -17 25 -16
25 3 13 11 -6 17 -16 15 -20 -3 -4 0 -8 5 -8 6 0 11 5 11 11 0 6 9 1 20 -12
10 -13 19 -19 20 -12 0 6 -4 15 -10 18 -5 3 -10 11 -10 18 0 6 6 3 13 -8 10
-12 16 -14 21 -7 4 7 2 12 -3 12 -6 0 -11 5 -11 11 0 8 5 8 15 -1 8 -7 13 -16
10 -20 -3 -4 2 -11 11 -14 12 -4 14 -1 9 14 -6 18 -3 20 19 16 14 -3 28 0 31
5 4 5 1 9 -5 9 -7 0 -10 5 -8 11 4 13 24 11 20 -2 -2 -10 12 -12 21 -2 4 3 1
13 -6 22 -11 14 -10 14 6 2 20 -15 22 -9 6 22 -9 20 -9 20 4 5 16 -21 32 -24
21 -5 -5 7 0 6 11 -3 17 -14 18 -13 12 2 -4 12 0 21 14 28 11 6 17 16 13 23
-5 9 -4 9 6 0 7 -6 20 -9 29 -6 14 4 14 3 -1 -10 -10 -8 -15 -17 -12 -20 4 -3
-6 -4 -22 -1 -16 2 -24 1 -19 -3 19 -15 15 -32 -6 -28 -18 4 -19 2 -7 -13 12
-16 11 -16 -6 -2 -11 8 -17 10 -13 4 8 -13 -16 -37 -26 -27 -4 3 -7 1 -7 -5 0
-7 -4 -11 -9 -10 -5 2 -17 -6 -25 -17 l-16 -20 6 20 c5 18 4 18 -6 2 -6 -9 -9
-21 -5 -26 3 -5 -1 -12 -7 -14 -10 -4 -10 -6 0 -6 7 -1 15 6 18 14 4 8 10 12
15 9 5 -3 20 6 33 19 14 14 27 23 29 21 2 -3 15 7 28 20 l24 25 13 -22 c13
-22 13 -22 6 2 -5 18 -3 22 7 15 11 -6 12 -5 2 8 -20 24 -2 29 19 5 l20 -22
-17 28 c-9 16 -13 32 -9 35 4 4 9 1 11 -5 3 -7 9 -13 15 -13 5 0 0 13 -11 28
-19 27 -19 28 0 29 10 1 18 -1 18 -5 -3 -21 3 -30 24 -35 21 -6 21 -6 -3 14
-19 16 -20 19 -6 15 17 -6 17 -4 5 11 -7 10 -9 15 -5 11 5 -4 15 -3 23 3 10 9
17 8 30 -2 11 -10 14 -10 9 -2 -9 16 6 17 21 2 9 -9 10 -6 6 12 l-6 24 20 -24
c15 -19 22 -21 28 -11 5 8 4 11 -3 6 -6 -3 -13 -2 -17 4 -6 10 9 19 39 24 8 1
19 5 23 9 12 12 13 46 2 52 -6 5 -6 12 3 23 11 13 10 15 -4 9 -10 -3 -20 -1
-24 5 -4 7 -3 8 4 4 7 -4 12 -2 12 3 0 12 -13 14 -70 13 -19 0 -38 5 -42 12
-5 7 -8 4 -8 -8 0 -16 -2 -16 -16 -6 -12 11 -15 11 -12 -1 2 -10 -7 -14 -29
-14 -18 0 -33 -3 -33 -6 0 -3 -11 -5 -25 -4 -14 2 -25 -2 -25 -8 0 -8 -4 -7
-12 1 -7 7 -17 12 -23 12 -5 0 -3 -5 5 -10 12 -8 9 -10 -12 -10 -16 0 -28 -5
-28 -12 0 -6 -7 -3 -16 8 -8 10 -13 14 -10 8 4 -8 -3 -11 -18 -10 -13 0 -22 6
-19 12 4 12 -41 13 -53 1 -4 -4 -13 -2 -21 5 -11 9 -12 7 -6 -8 6 -16 5 -17
-9 -6 -14 11 -18 10 -27 -5 -6 -11 -11 -13 -11 -5 0 7 -5 10 -10 7 -6 -4 -8
-11 -5 -16 3 -5 -2 -6 -11 -2 -12 4 -15 3 -10 -5 5 -8 2 -10 -9 -5 -11 4 -13
8 -5 13 6 4 12 18 13 31 0 13 6 28 12 32 6 5 4 7 -5 6 -8 -1 -23 1 -33 6 -10
4 -24 2 -34 -6 -12 -10 -15 -10 -9 -1 4 6 2 12 -3 12 -6 0 -11 -6 -11 -12 0
-9 -4 -8 -10 2 -9 13 -10 13 -10 0 0 -13 -1 -13 -10 0 -6 10 -10 11 -10 3 0
-7 -5 -13 -11 -13 -5 0 -7 5 -3 12 4 7 -6 2 -24 -10 -17 -12 -34 -22 -39 -21
-21 4 -34 -2 -27 -12 4 -7 -2 -6 -17 2 -21 11 -23 11 -11 -3 10 -13 9 -16 -9
-21 -11 -3 -19 -10 -15 -15 3 -5 -1 -9 -9 -9 -12 0 -12 3 -2 16 10 12 9 14 -5
8 -23 -8 -23 2 0 20 10 8 11 11 2 7 -12 -7 -13 -5 -3 8 7 8 10 18 6 21 -3 4
-1 7 6 7 7 0 9 5 5 12 -5 8 -1 9 12 4 15 -6 17 -5 7 5 -18 18 -16 29 5 29 14
0 15 2 2 10 -8 5 -10 10 -4 10 7 0 14 9 17 20 3 11 1 20 -4 20 -5 0 -9 6 -9
13 0 6 -4 19 -10 27 -7 12 -12 11 -31 -5 -15 -13 -20 -15 -15 -5 5 9 2 8 -7
-2 -8 -10 -17 -15 -20 -11 -4 3 -7 1 -7 -5 0 -7 -6 -12 -13 -12 -8 0 -20 -11
-27 -25 -7 -13 -17 -22 -22 -19 -5 3 -8 2 -7 -3 4 -15 -13 -43 -22 -37 -5 3
-6 -3 -2 -12 5 -13 3 -15 -7 -9 -10 6 -12 4 -7 -8 4 -11 -1 -21 -14 -28 -13
-6 -18 -16 -15 -26 5 -13 4 -14 -9 -3 -13 11 -14 10 -9 -5 6 -14 4 -16 -7 -10
-11 7 -11 5 1 -10 8 -10 10 -16 3 -12 -6 4 -14 1 -16 -5 -3 -7 -6 -5 -6 6 -1
11 -4 17 -7 13 -4 -3 -13 1 -21 9 -9 8 -22 13 -30 10 -8 -3 -12 -2 -9 2 7 11
-11 37 -26 37 -7 0 -14 6 -14 13 -1 6 -2 17 -3 23 0 5 -6 7 -11 4 -6 -3 -14 5
-19 19 -8 19 -15 23 -32 19 -15 -4 -20 -3 -15 5 4 7 2 12 -5 12 -7 0 -10 3 -6
6 3 3 0 12 -6 19 -9 10 -15 10 -26 1 -12 -9 -13 -7 -9 11 4 14 2 20 -6 17 -7
-3 -19 7 -26 21 -9 17 -20 25 -31 22 -11 -3 -16 0 -13 7 3 7 -9 24 -26 39 -17
15 -28 32 -25 38 4 5 3 9 -2 8 -21 -4 -34 2 -31 13 5 15 -15 38 -32 38 -6 0
-8 5 -5 10 3 6 1 10 -5 10 -6 0 -9 4 -6 8 3 5 -4 15 -14 22 -13 10 -16 18 -9
26 6 8 4 16 -8 25 -17 13 -17 13 -3 -6 14 -18 14 -19 -2 -7 -17 13 -18 28 -5
49 5 8 3 13 -5 13 -9 0 -9 3 2 10 14 9 7 15 -14 11 -5 -1 -4 5 4 13 8 11 9 16
1 16 -6 0 -11 5 -11 11 0 5 5 7 11 3 8 -5 8 -1 0 13 -6 11 -7 23 -4 27 3 3 0
6 -8 6 -11 0 -11 2 1 10 10 6 11 10 3 10 -8 0 -13 13 -13 30 0 17 -4 30 -10
30 -5 0 -10 10 -10 23 0 12 -1 32 -1 45 0 12 -5 22 -10 22 -7 0 -7 6 0 17 7
13 5 23 -6 35 -12 14 -13 18 -3 18 9 0 7 7 -6 22 -10 12 -14 19 -8 15 6 -3 11
0 11 8 0 8 -4 12 -9 9 -5 -3 -7 6 -4 20 3 19 1 23 -11 19 -12 -5 -14 -3 -7 8
12 19 14 39 4 39 -4 0 -7 13 -6 29 1 17 -1 28 -5 25 -4 -2 -10 3 -13 12 -3 8
-2 12 3 9 5 -3 13 0 17 7 4 7 4 10 -1 6 -12 -11 -35 11 -28 28 3 8 -1 22 -8
31 -10 11 -10 14 -2 9 9 -5 11 -2 7 8 -3 9 -11 16 -18 16 -7 0 -6 3 2 9 11 7
11 11 -2 24 -17 16 -22 32 -8 23 5 -3 9 1 9 9 0 8 -4 12 -9 9 -4 -3 -8 7 -8
21 0 17 -4 24 -12 19 -7 -4 -8 -3 -4 5 4 6 3 17 -2 24 -5 7 -8 20 -7 29 2 10
-1 18 -6 18 -4 0 -5 8 -2 17 5 13 2 15 -12 10 -16 -7 -16 -5 -4 9 11 14 11 18
-6 30 -10 8 -14 14 -7 14 15 0 6 39 -15 63 -13 14 -13 18 -3 12 12 -7 12 -5
-1 11 -24 29 -34 48 -21 40 8 -5 10 -2 6 8 -3 9 -10 16 -15 16 -5 0 -9 8 -9
17 0 9 -8 26 -17 37 -17 20 -17 20 1 6 18 -14 19 -14 7 8 -6 12 -17 22 -24 22
-7 0 -6 4 3 10 10 6 11 10 3 10 -7 0 -13 7 -13 16 0 9 -5 12 -12 8 -7 -4 -8
-3 -4 4 4 6 0 25 -8 41 -12 23 -13 31 -3 34 9 4 9 6 -1 6 -7 1 -10 6 -7 11 4
6 3 10 -2 9 -20 -4 -24 2 -12 18 12 14 12 16 0 8 -11 -6 -13 -4 -8 8 3 9 3 16
-1 16 -19 -3 -25 2 -12 11 10 6 11 10 3 10 -7 0 -13 7 -13 15 0 8 -6 15 -12
15 -9 0 -8 4 2 10 12 8 12 10 1 10 -9 0 -12 8 -9 25 3 14 1 28 -5 32 -6 4 -7
1 -2 -7 5 -9 4 -11 -4 -6 -17 11 -4 25 19 21 13 -3 17 1 13 11 -4 10 0 12 13
7 10 -3 15 -2 11 3 -3 5 6 14 19 21 18 8 23 8 18 0 -3 -7 1 -4 10 7 9 11 20
15 28 10 9 -5 8 -2 -2 11 -8 10 -10 16 -3 12 12 -7 73 17 73 29 0 3 -6 2 -13
-1 -6 -4 -3 1 8 9 11 9 25 14 32 12 7 -3 13 1 13 9 0 8 8 12 19 10 13 -2 18 1
15 10 -3 7 0 16 7 21 8 4 10 3 5 -4 -4 -7 -2 -12 3 -12 6 0 11 5 11 11 0 11
59 35 74 31 5 -2 3 4 -4 13 -11 13 -10 14 5 9 14 -6 16 -4 10 6 -5 8 -4 11 3
7 13 -9 42 2 42 15 0 6 -8 4 -17 -3 -16 -13 -17 -12 -5 3 7 9 22 15 34 13 15
-3 18 0 14 12 -5 12 -1 14 18 11 14 -3 25 -2 24 1 -2 20 3 31 12 26 6 -3 10
-1 10 4 0 6 7 11 16 11 8 0 13 4 10 8 -2 4 4 14 16 21 15 9 18 10 13 0 -6 -8
-4 -10 4 -5 7 5 10 14 7 22 -3 8 0 11 10 7 9 -3 14 1 15 13 0 11 3 14 6 7 3
-10 7 -10 18 0 7 7 11 15 8 19 -2 4 4 5 13 1 13 -5 15 -3 9 7 -6 10 -4 12 8 7
11 -4 14 -2 10 9 -4 10 0 12 11 8 11 -4 16 -1 16 10 0 9 3 15 8 15 18 -3 35 2
29 8 -4 3 3 11 16 17 12 7 22 20 22 31 -1 11 4 23 10 27 6 5 5 8 -3 8 -9 0
-11 7 -7 21 4 12 3 19 -2 16 -9 -6 -45 27 -38 35 2 1 -4 10 -13 18 -14 13 -15
12 -8 -5 6 -17 4 -17 -15 4 -18 19 -19 25 -8 32 10 7 6 8 -13 5 -17 -3 -27 0
-25 6 1 6 -9 17 -23 25 -14 7 -20 13 -15 13 6 0 -1 7 -15 14 -14 8 -28 12 -33
9 -4 -2 -7 -1 -6 4 5 27 -1 35 -16 23 -13 -11 -14 -10 -9 4 5 12 2 15 -12 9
-13 -5 -15 -3 -9 8 7 12 6 12 -7 1 -13 -10 -18 -9 -29 5 -13 17 -13 17 6 3 18
-14 19 -14 7 2 -7 9 -22 15 -32 13 -10 -2 -28 7 -41 21 -12 13 -31 24 -41 24
-11 0 -17 4 -14 9 4 5 -4 7 -16 3 -16 -4 -20 -2 -15 10 4 12 1 14 -14 11 -11
-3 -19 0 -19 7 0 8 -8 10 -21 7 -15 -4 -18 -2 -10 7 7 8 5 12 -10 13 -12 1
-17 -3 -13 -10 3 -7 -4 -2 -15 11 -11 13 -25 21 -30 18 -12 -8 -33 18 -23 29
4 5 -1 5 -10 2 -10 -4 -18 -2 -18 5 0 7 -5 6 -15 -2 -12 -10 -15 -10 -15 3 0
10 -6 13 -18 10 -11 -2 -25 4 -33 14 -13 16 -12 17 3 5 12 -10 18 -10 24 -1 4
7 3 9 -4 5 -6 -3 -13 -2 -17 4 -3 5 -15 10 -26 10 -14 0 -18 4 -13 13 5 7 0 6
-11 -3 -11 -9 -16 -10 -11 -2 6 11 -5 17 -26 13 -5 0 -8 4 -8 10 0 5 -4 7 -10
4 -5 -3 -10 1 -10 10 0 11 -5 15 -14 12 -11 -4 -13 -1 -9 10 4 11 3 14 -5 9
-7 -4 -15 0 -18 9 -5 13 -9 14 -15 4 -5 -9 -10 -5 -14 14 -4 15 -11 27 -15 27
-13 0 -18 38 -6 51 8 9 8 10 -1 5 -8 -5 -13 -1 -13 9 0 9 4 13 10 10 5 -3 8 0
6 7 -13 42 -16 69 -6 63 7 -4 7 2 0 20 -14 37 -13 45 7 45 15 0 14 2 -3 16
-10 8 -12 12 -4 8 13 -7 13 -5 1 9 -9 12 -10 17 -2 17 9 0 9 5 1 20 -8 15 -8
20 2 20 9 0 9 3 -2 10 -13 8 -12 10 3 10 17 0 17 1 2 16 -13 14 -14 19 -3 25
10 7 10 9 -2 9 -11 0 -12 2 -3 8 8 5 9 13 3 22 -12 19 -13 33 -1 26 10 -7 9
20 -2 30 -4 4 1 13 11 21 13 10 14 13 2 11 -11 -2 -14 6 -12 32 1 26 -1 31 -8
20 -5 -8 -10 -10 -10 -4 0 5 5 15 12 22 8 8 8 15 -3 28 -9 12 -10 15 -1 10 6
-4 12 -2 12 3 0 6 -6 11 -12 11 -9 0 -8 4 2 10 8 5 10 10 3 10 -12 0 -12 24 0
36 4 4 2 13 -4 20 -14 16 -19 63 -8 70 4 2 6 11 3 19 -4 8 -11 12 -18 8 -6 -4
-5 1 3 10 11 14 11 20 0 34 -10 11 -10 14 -1 9 7 -4 12 -2 12 8 0 8 -6 17 -12
19 -10 4 -10 6 0 6 9 1 10 5 0 20 -9 15 -9 23 3 37 8 10 9 15 3 11 -7 -4 -14
0 -17 7 -3 8 -1 17 6 20 7 2 3 5 -8 5 -17 1 -17 3 -5 11 10 6 11 10 3 10 -7 0
-13 9 -13 21 0 13 4 18 13 13 9 -6 9 -4 1 7 -6 8 -11 33 -10 56 1 23 -3 41 -8
40 -4 -1 -11 4 -13 11 -3 6 1 12 9 12 10 0 9 3 -2 10 -13 8 -13 10 0 10 9 0 6
6 -9 16 -16 12 -20 19 -12 27 14 14 14 40 0 31 -8 -5 -8 -1 0 14 14 26 14 42
1 22 -8 -11 -10 -6 -8 22 1 20 -4 43 -11 52 -8 9 -9 16 -4 16 10 0 10 41 -1
58 -4 7 -11 10 -16 7 -11 -7 -7 22 5 32 4 4 5 2 0 -6 -5 -9 -4 -12 3 -7 11 7
6 36 -7 36 -4 0 -6 16 -6 35 1 19 -2 32 -6 30 -8 -6 -22 26 -14 33 3 3 5 -1 5
-8 0 -7 3 -10 6 -7 4 4 1 13 -6 22 -7 8 -10 21 -7 30 4 8 0 18 -8 22 -8 5 -15
27 -17 51 -2 26 -7 41 -14 38 -7 -3 -10 3 -7 15 3 12 0 19 -8 19 -11 0 -11 2
1 10 12 8 12 10 1 10 -8 0 -11 3 -8 7 4 3 -1 15 -10 26 -13 15 -14 19 -3 13 8
-4 7 -1 -3 7 -14 11 -15 16 -5 20 8 3 6 6 -5 6 -10 1 -16 5 -13 10 4 5 0 12
-6 14 -10 4 -10 6 0 6 10 1 10 5 -2 17 -9 8 -17 24 -17 35 -3 37 -4 41 -23 55
-11 8 -14 14 -8 14 7 0 12 5 12 11 0 5 -4 8 -8 5 -4 -2 -14 4 -21 16 -7 11 -8
17 -3 14 6 -3 8 2 5 13 -3 11 -11 17 -18 15 -9 -4 -12 4 -10 25 1 18 -2 29 -9
28 -6 -1 -11 7 -11 18 0 11 -6 24 -12 28 -7 4 -13 17 -13 28 0 13 -4 18 -12
13 -8 -5 -9 -2 -5 9 3 9 2 19 -4 23 -6 3 -8 12 -5 20 3 8 -1 17 -9 20 -8 4
-12 10 -9 15 3 5 0 9 -6 9 -6 0 -9 4 -5 9 3 5 1 12 -5 16 -6 4 -7 11 -4 17 5
7 1 9 -9 5 -11 -4 -14 -2 -10 9 3 8 -3 24 -12 34 -10 11 -15 20 -10 20 4 0 -3
9 -16 21 -13 11 -19 18 -13 15 6 -3 11 1 11 8 0 8 -9 12 -21 10 -12 -3 -15 -1
-8 2 10 5 9 10 -5 21 -11 9 -12 12 -3 8 10 -4 9 -2 -2 8 -10 8 -18 19 -18 24
0 5 -9 18 -20 28 -11 10 -20 24 -20 32 0 7 -6 13 -14 13 -8 0 -13 9 -12 22 1
14 -8 27 -21 34 -13 6 -20 14 -16 17 3 4 1 7 -5 7 -7 0 -12 7 -12 15 0 8 -4
15 -10 15 -5 0 -10 7 -10 15 0 8 -6 15 -14 15 -8 0 -18 5 -22 12 -4 7 -3 8 4
4 8 -5 10 -2 6 9 -4 8 -15 20 -26 26 -11 6 -17 13 -14 16 7 8 -20 33 -36 33
-10 0 -9 3 2 10 12 7 12 10 1 10 -13 0 -50 41 -63 69 -5 13 -7 13 -7 2 -1 -8
7 -24 17 -35 17 -21 17 -21 -5 -2 -13 11 -23 25 -23 32 0 7 -5 16 -12 20 -7 5
-9 2 -4 -7 4 -8 0 -5 -8 5 -9 11 -16 23 -16 28 0 4 -6 8 -12 8 -7 0 -24 10
-38 21 l-25 20 25 -12 c26 -12 24 -10 -25 31 -19 16 -24 18 -15 6 14 -18 14
-18 -7 -6 -12 8 -21 16 -21 19 2 18 -4 22 -16 12 -12 -10 -13 -8 -9 11 3 13 2
20 -2 16 -4 -4 -16 4 -27 17 -19 25 -42 32 -51 18 -2 -5 -2 -2 0 5 5 22 -7 34
-23 21 -11 -9 -14 -7 -14 12 0 17 -3 20 -9 10 -7 -10 -9 -11 -13 0 -5 16 -50
20 -61 5 -6 -7 -7 -4 -3 6 3 10 1 20 -4 23 -6 4 -10 1 -10 -5 0 -7 -6 -10 -14
-7 -15 6 -26 -12 -26 -44 0 -12 4 -17 11 -13 7 4 7 -1 -1 -16 -7 -12 -7 -20
-2 -16 13 8 43 -4 37 -15 -6 -9 29 -31 37 -23 3 3 8 -2 12 -11 4 -11 2 -14 -7
-9 -6 4 -1 -4 13 -18 14 -13 28 -23 32 -21 4 2 5 -5 3 -16 -3 -15 0 -18 12
-14 11 4 14 2 9 -5 -4 -7 -1 -15 8 -18 9 -3 16 -12 16 -20 0 -8 6 -14 13 -14
9 0 8 -3 -2 -9 -11 -7 -9 -10 8 -16 12 -3 19 -10 16 -14 -7 -12 31 -52 41 -43
4 4 3 0 -4 -10 -9 -11 -9 -17 -2 -20 6 -2 12 -13 12 -25 1 -13 7 -19 15 -16 9
4 11 0 7 -12 -4 -10 -1 -21 6 -25 11 -7 11 -12 -1 -26 -9 -11 -9 -15 -1 -10
19 11 35 -3 21 -20 -9 -11 -8 -15 6 -20 13 -5 14 -9 3 -15 -10 -7 -9 -9 5 -9
13 0 17 -6 15 -22 -2 -13 2 -22 9 -21 7 2 11 -14 10 -46 -2 -39 1 -47 10 -39
10 8 13 5 13 -13 0 -43 3 -59 13 -59 6 0 7 -3 4 -7 -4 -3 -1 -13 6 -21 9 -13
9 -14 0 -8 -9 5 -11 2 -7 -8 3 -9 11 -16 17 -16 6 0 7 -3 4 -7 -4 -3 -2 -12 4
-20 9 -10 8 -13 -5 -13 -10 0 -14 -5 -11 -10 4 -6 11 -8 16 -5 5 4 5 -3 0 -18
-7 -17 -6 -28 2 -36 7 -7 13 -16 13 -22 1 -5 2 -14 3 -20 0 -5 6 -7 12 -3 7 4
7 -1 -1 -16 -8 -15 -8 -20 -1 -16 7 5 11 -2 11 -17 0 -14 6 -27 13 -30 7 -3
12 -21 12 -46 0 -27 3 -40 11 -37 7 3 9 -5 6 -21 -4 -19 -2 -24 8 -18 9 6 10
3 0 -15 -9 -17 -9 -25 3 -38 8 -9 13 -26 11 -37 -1 -10 2 -25 8 -32 6 -7 8
-22 5 -32 -3 -13 0 -18 7 -15 7 3 13 -2 13 -10 0 -8 -3 -13 -7 -11 -4 2 -7 -2
-7 -10 0 -8 4 -12 8 -10 4 3 10 -2 13 -11 4 -10 2 -13 -7 -8 -9 6 -9 4 -1 -7
6 -8 10 -22 9 -32 -3 -13 0 -15 9 -8 8 7 12 5 12 -9 0 -10 -5 -16 -11 -14 -5
3 -2 -1 7 -9 10 -8 15 -17 12 -20 -3 -3 0 -16 7 -29 11 -20 10 -21 -3 -11 -12
10 -14 10 -13 -5 4 -30 17 -52 28 -45 6 4 7 1 1 -8 -11 -19 -11 -52 1 -62 6
-6 5 -10 -3 -14 -10 -4 -10 -8 -1 -19 6 -8 8 -14 3 -14 -5 0 -2 -5 6 -10 13
-8 13 -10 1 -10 -11 0 -10 -4 5 -16 10 -8 13 -13 7 -9 -8 4 -13 0 -13 -9 0 -8
6 -17 13 -19 9 -4 8 -6 -2 -6 -11 -1 -11 -4 0 -18 12 -15 12 -16 -3 -10 -12 4
-15 2 -11 -9 3 -7 10 -14 17 -14 6 0 4 -5 -4 -10 -13 -9 -13 -10 0 -10 13 0
13 -1 0 -10 -9 -6 -10 -10 -3 -10 7 0 10 -10 7 -26 -3 -18 -1 -23 7 -18 8 4 9
3 5 -5 -4 -6 -2 -19 5 -27 10 -12 9 -13 -7 -8 -17 5 -18 5 -2 -8 15 -13 15
-15 0 -26 -14 -9 -14 -10 -1 -6 11 3 15 -2 15 -20 0 -14 -4 -22 -8 -20 -4 3
-8 1 -8 -4 0 -6 7 -13 16 -16 11 -4 13 -10 7 -19 -5 -6 -8 -32 -7 -57 1 -25 3
-73 5 -107 1 -34 5 -60 9 -58 4 2 7 -2 7 -10 0 -8 -5 -11 -10 -8 -6 4 -8 0 -4
-10 3 -9 1 -18 -6 -21 -9 -3 -8 -5 1 -5 7 -1 10 -6 7 -12 -12 -18 -12 -68 -1
-73 6 -2 5 -5 -3 -5 -11 -1 -11 -4 -1 -16 7 -9 8 -15 2 -15 -12 0 -10 -33 3
-42 6 -5 4 -8 -5 -8 -13 0 -13 -1 0 -10 13 -9 13 -10 0 -10 -13 0 -13 -1 0
-10 8 -5 10 -10 3 -10 -6 0 -9 -8 -6 -19 3 -10 0 -22 -6 -25 -6 -4 -11 -13
-11 -19 0 -7 4 -6 10 3 8 12 10 11 10 -7 0 -13 -4 -23 -8 -23 -4 0 -8 -9 -9
-20 -1 -11 2 -18 6 -16 4 3 8 -1 8 -9 0 -8 -4 -12 -9 -9 -13 8 -10 -10 5 -25
8 -10 8 -12 0 -7 -6 3 -14 2 -17 -3 -4 -5 2 -12 11 -14 17 -4 17 -5 0 -6 -15
-1 -16 -5 -7 -21 7 -14 7 -20 0 -20 -5 0 -10 -5 -10 -11 0 -5 5 -7 10 -4 6 3
10 1 10 -4 0 -6 -5 -11 -12 -11 -6 0 -8 -3 -5 -7 4 -3 2 -12 -4 -19 -7 -8 -7
-14 1 -19 8 -5 8 -11 -1 -21 -9 -11 -8 -14 2 -14 11 0 11 -2 0 -9 -19 -12 -23
-42 -9 -59 9 -10 8 -12 -3 -10 -10 2 -13 -4 -11 -20 2 -14 -4 -29 -14 -37 -16
-11 -16 -15 -5 -29 12 -14 12 -16 -4 -10 -13 5 -16 4 -11 -5 4 -7 -2 -20 -16
-32 -13 -11 -16 -18 -8 -14 8 4 6 -1 -4 -9 -11 -9 -23 -16 -28 -16 -4 0 -8 -5
-8 -11 0 -8 6 -7 18 2 15 13 16 12 3 -4 -8 -10 -20 -16 -27 -13 -8 3 -13 2
-13 -2 3 -19 -2 -25 -11 -12 -6 9 -13 11 -17 5 -14 -18 -36 -17 -29 1 5 13 4
14 -7 6 -8 -7 -18 -8 -22 -4 -5 4 -5 -1 -2 -11 4 -12 3 -16 -4 -11 -6 3 -26 8
-45 10 -25 2 -33 0 -28 -9 4 -7 -3 -3 -15 7 -15 14 -20 15 -16 5 4 -10 -1 -15
-15 -15 -11 0 -20 5 -20 11 0 5 -4 4 -9 -4 -12 -18 -41 -23 -58 -9 -10 8 -13
7 -13 -3 0 -11 -2 -11 -10 1 -9 13 -14 7 -11 -12 0 -4 -6 -5 -14 -2 -8 4 -13
10 -10 14 3 5 -3 7 -12 6 -9 -2 -18 -7 -20 -13 -2 -5 -18 -7 -35 -5 -24 4 -29
2 -23 -9 7 -12 6 -12 -7 -1 -12 10 -18 10 -23 1 -6 -8 -10 -7 -16 2 -6 10 -9
11 -9 2 0 -7 -5 -13 -11 -13 -5 0 -7 5 -3 12 5 7 3 8 -5 4 -7 -5 -10 -15 -6
-24 5 -13 3 -13 -14 2 -14 13 -21 14 -27 5 -5 -8 -3 -10 7 -4 8 5 10 4 6 0
-12 -14 -38 -15 -30 -2 5 9 3 9 -8 1 -8 -6 -31 -11 -52 -10 -21 1 -41 -2 -44
-7 -3 -6 -1 -7 5 -3 7 4 12 2 12 -3 0 -14 -17 -14 -25 -1 -9 14 -27 2 -19 -13
3 -7 -2 -3 -10 7 -16 20 -16 20 -16 0 0 -16 -2 -17 -10 -4 -6 9 -10 11 -10 3
0 -7 -7 -10 -15 -7 -12 5 -13 2 -8 -12 7 -18 6 -18 -11 -1 -19 18 -31 23 -22
8 3 -5 -2 -12 -12 -16 -26 -12 -43 -14 -37 -5 3 4 -6 3 -20 -3 -14 -7 -25 -16
-25 -22 0 -5 -5 -3 -10 5 -7 11 -10 11 -10 2 0 -7 -4 -11 -9 -7 -5 3 -12 1
-15 -3 -3 -5 -17 -8 -32 -6 -17 1 -24 -2 -21 -10 4 -9 -4 -11 -25 -8 -20 3
-29 1 -24 -6 3 -5 -1 -12 -9 -15 -10 -4 -12 -1 -8 11 4 12 0 11 -16 -5 -22
-23 -37 -31 -27 -15 3 5 -1 9 -9 9 -8 0 -12 -4 -10 -8 3 -3 -6 -9 -19 -11 -17
-4 -23 -1 -19 9 3 7 -2 13 -11 13 -14 0 -20 12 -17 33 0 4 -5 7 -13 7 -8 0
-18 9 -21 20 -4 11 -11 18 -16 14 -6 -3 -19 2 -29 11 -17 15 -22 16 -37 4 -11
-9 -14 -10 -9 -1 5 8 1 12 -11 12 -15 0 -16 2 -3 10 8 5 11 10 5 10 -5 0 1 10
15 21 14 11 20 18 13 15 -6 -4 -15 -1 -19 5 -4 8 -3 9 5 5 6 -4 14 0 17 8 3 9
12 16 20 16 8 0 14 5 14 11 0 5 -6 7 -12 3 -8 -4 -10 -3 -5 2 5 5 14 9 20 9 7
0 12 10 11 22 0 19 2 21 15 10 12 -10 14 -9 8 6 -4 11 -3 16 3 12 6 -3 10 -1
10 5 0 6 4 9 9 5 12 -6 25 31 16 45 -4 6 1 7 11 3 14 -5 16 -2 12 15 -4 13 -2
20 5 19 15 -3 18 44 3 62 -9 12 -8 13 4 7 8 -4 7 -1 -4 8 -10 8 -15 20 -11 26
3 6 1 9 -6 8 -7 -2 -13 3 -14 11 0 8 -7 16 -15 18 -13 4 -13 3 0 -7 12 -9 12
-11 1 -8 -8 2 -15 12 -17 23 -1 10 -13 28 -26 39 -13 12 -19 19 -13 16 6 -3 3
2 -7 11 -9 9 -14 19 -11 23 4 3 -1 6 -11 6 -9 0 -15 4 -12 9 3 5 -1 11 -9 15
-8 3 -15 16 -15 28 0 19 -2 20 -10 8 -9 -13 -10 -13 -11 0 -1 8 -1 21 0 28 1
7 -2 12 -6 11 -4 -1 -15 -1 -23 0 -13 1 -13 2 0 11 13 8 12 10 -4 10 -12 0
-16 5 -13 14 4 9 -2 18 -15 22 -16 5 -18 8 -7 15 11 7 10 9 -5 9 -15 0 -16 3
-6 15 11 13 10 14 -4 9 -10 -4 -16 -1 -16 9 0 8 -7 17 -15 20 -8 4 -18 21 -23
39 -6 25 -14 32 -28 30 -14 -2 -15 0 -6 6 11 8 11 12 -1 23 -7 8 -12 20 -9 28
3 8 0 11 -7 7 -6 -4 -11 0 -11 9 0 9 -7 23 -15 32 -8 8 -13 19 -9 24 3 5 0 8
-8 7 -7 -2 -12 5 -12 14 1 10 -1 16 -5 14 -9 -5 -31 21 -24 28 4 3 -1 6 -10 6
-12 0 -17 9 -17 30 0 21 -5 30 -16 30 -8 0 -12 5 -9 10 3 6 1 10 -4 10 -6 0
-11 7 -11 15 0 8 -4 15 -10 15 -5 0 -10 5 -10 11 0 7 -10 20 -22 30 -14 13
-17 19 -7 19 8 1 1 8 -16 16 -16 8 -22 12 -12 9 9 -2 17 0 17 5 0 6 -6 10 -13
10 -7 0 -24 14 -36 31 -13 18 -19 29 -13 25 6 -3 14 -2 17 4 4 6 3 10 -2 9
-20 -3 -34 2 -28 11 3 6 1 10 -6 10 -7 0 -10 3 -6 6 7 8 -24 44 -34 38 -4 -2
-5 6 -1 18 3 14 2 19 -6 14 -7 -4 -12 -2 -12 4 0 6 -4 9 -8 6 -5 -3 -9 1 -9 9
0 8 5 12 11 9 6 -3 1 3 -11 12 -13 9 -23 22 -23 29 0 7 -7 18 -15 25 -8 7 -12
17 -8 23 3 6 1 7 -5 3 -7 -4 -12 -1 -12 8 0 8 -4 16 -9 18 -5 2 -11 10 -13 18
-2 8 -12 20 -23 27 l-20 12 20 1 c19 1 18 2 -3 13 -12 7 -19 16 -16 20 4 4 2
7 -4 7 -7 0 -11 6 -10 13 2 6 -3 11 -9 9 -7 -1 -13 2 -13 8 0 5 6 10 13 10 6
0 4 5 -6 11 -9 6 -15 15 -11 20 3 5 0 8 -8 7 -7 -2 -12 5 -12 14 1 10 -3 15
-9 11 -6 -4 -8 0 -4 10 4 10 2 16 -5 14 -7 -1 -12 7 -13 18 0 11 -10 31 -23
45 -12 13 -20 30 -18 37 3 7 0 15 -6 19 -7 5 -8 2 -4 -7 4 -8 0 -5 -8 5 -9 12
-13 28 -10 39 4 13 2 17 -5 13 -6 -4 -11 0 -11 9 0 10 -5 13 -12 9 -8 -5 -7 0
2 11 9 11 10 16 3 11 -12 -7 -18 5 -14 27 1 5 -3 6 -9 2 -5 -3 -10 1 -10 10 0
9 -5 13 -10 10 -6 -4 -10 -3 -9 2 3 18 -14 52 -22 47 -6 -3 -8 6 -5 21 4 20 1
25 -9 22 -8 -4 -15 4 -19 19 -4 13 -11 24 -16 24 -6 0 -10 9 -10 21 0 11 -4
17 -10 14 -5 -3 -7 0 -4 8 3 8 0 18 -5 22 -6 3 -9 11 -6 16 3 5 -1 6 -10 3
-11 -4 -14 -2 -9 9 3 9 -3 24 -14 35 -11 11 -17 24 -14 28 4 4 -1 4 -10 1 -15
-5 -16 -2 -8 18 7 19 6 23 -4 19 -8 -3 -17 0 -22 7 -4 8 -3 10 4 5 7 -4 12 -2
12 3 0 6 -7 11 -15 11 -9 0 -12 6 -8 17 5 12 3 14 -7 8 -10 -6 -12 -3 -8 13 4
16 2 19 -10 15 -10 -4 -13 -2 -8 5 3 6 -2 15 -11 21 -14 8 -15 11 -3 11 9 0 6
6 -10 16 -18 11 -19 14 -5 9 16 -5 15 -1 -7 20 -31 29 -38 45 -10 24 9 -8 2 3
-15 24 -34 38 -43 63 -20 52 6 -4 -1 5 -16 19 -15 14 -22 26 -15 26 10 0 10 2
-1 9 -8 5 -10 14 -5 22 7 12 5 12 -9 1 -14 -12 -16 -11 -12 7 3 14 -1 21 -13
22 -10 0 -12 3 -5 6 10 3 10 7 0 18 -7 7 -15 11 -19 8 -4 -2 -5 3 -2 11 3 9 1
16 -4 16 -6 0 -9 9 -7 21 3 17 1 19 -10 9 -11 -9 -12 -7 -8 9 3 12 1 21 -6 21
-6 0 -11 5 -11 11 0 7 -8 18 -17 26 -11 8 -12 11 -3 7 12 -7 13 -5 3 8 -7 8
-9 19 -5 23 4 5 1 5 -5 1 -9 -5 -13 0 -13 12 0 11 -7 23 -16 26 -9 3 -14 13
-11 21 4 8 -2 16 -14 20 -11 4 -16 11 -13 17 5 8 1 9 -10 5 -13 -5 -15 -3 -7
11 7 14 5 21 -9 30 -11 7 -17 18 -14 27 4 8 -1 17 -10 21 -9 3 -16 10 -16 16
0 5 4 7 8 4 5 -3 9 1 9 8 0 9 -7 12 -16 8 -9 -3 -13 -2 -9 3 11 12 -11 47 -24
39 -7 -5 -9 -1 -5 9 4 12 1 17 -11 17 -13 0 -14 2 -4 9 10 6 9 10 -7 14 -12 3
-21 13 -21 22 0 10 -5 13 -12 9 -9 -6 -9 -3 1 9 11 15 10 18 -13 27 -17 6 -24
14 -20 25 3 8 1 15 -6 15 -6 0 -8 5 -4 12 5 7 2 9 -7 6 -10 -4 -14 3 -16 20 0
15 -11 34 -22 43 -21 17 -30 35 -11 24 6 -3 10 -1 10 4 0 6 -4 12 -10 12 -5 1
-16 2 -22 3 -7 1 -12 10 -10 20 3 14 -1 16 -20 11 -21 -7 -22 -6 -5 7 18 13
17 14 -2 16 -45 4 -51 6 -51 17 0 6 -9 11 -20 11 -14 0 -19 -5 -15 -15z m2950
-291 c3 -5 1 -10 -4 -10 -6 0 -11 5 -11 10 0 6 2 10 4 10 3 0 8 -4 11 -10z
m470 -480 c3 -6 -1 -7 -9 -4 -18 7 -21 14 -7 14 6 0 13 -4 16 -10z m-248 -355
c0 -8 -4 -12 -9 -9 -5 3 -6 10 -3 15 9 13 12 11 12 -6z m173 -655 c0 -5 -2
-10 -4 -10 -3 0 -8 5 -11 10 -3 6 -1 10 4 10 6 0 11 -4 11 -10z m588 -145 c-3
-3 -9 2 -12 12 -6 14 -5 15 5 6 7 -7 10 -15 7 -18z m-1998 -1605 c0 -5 -2 -10
-4 -10 -3 0 -8 5 -11 10 -3 6 -1 10 4 10 6 0 11 -4 11 -10z m-1472 -1060 c-7
-10 -14 -17 -17 -15 -4 4 18 35 25 35 2 0 -1 -9 -8 -20z m3946 -576 c3 -8 2
-12 -4 -9 -6 3 -10 10 -10 16 0 14 7 11 14 -7z m896 -1338 c0 -2 -8 -10 -17
-17 -16 -13 -17 -12 -4 4 13 16 21 21 21 13z m920 -200 c0 -11 -19 -15 -25 -6
-3 5 1 10 9 10 9 0 16 -2 16 -4z m-253 -141 c0 -8 -4 -12 -9 -9 -5 3 -6 10 -3
15 9 13 12 11 12 -6z m-302 -4 c3 -5 2 -12 -3 -15 -5 -3 -9 1 -9 9 0 17 3 19
12 6z m79 -10 c3 -4 -4 -17 -17 -27 -22 -19 -22 -19 -4 2 9 11 14 24 10 27 -3
4 -4 7 0 7 3 0 8 -4 11 -9z m86 5 c0 -3 -4 -8 -10 -11 -5 -3 -10 -1 -10 4 0 6
5 11 10 11 6 0 10 -2 10 -4z m-40 -28 c0 -4 -4 -8 -9 -8 -6 0 -12 4 -15 8 -3
5 1 9 9 9 8 0 15 -4 15 -9z m-336 -16 c3 -5 -1 -9 -9 -9 -8 0 -12 4 -9 9 3 4
7 8 9 8 2 0 6 -4 9 -8z m108 -19 c-3 -16 -7 -22 -10 -15 -4 13 4 42 11 42 2 0
2 -12 -1 -27z m-145 11 c-3 -3 -12 -4 -19 -1 -8 3 -5 6 6 6 11 1 17 -2 13 -5z
m463 -10 c0 -2 -9 -8 -20 -14 -15 -8 -18 -8 -14 3 4 11 34 21 34 11z m-430
-14 c-8 -5 -19 -10 -25 -10 -5 0 -3 5 5 10 8 5 20 10 25 10 6 0 3 -5 -5 -10z
m-4595 -496 c-11 -8 -12 -14 -5 -19 5 -3 8 -10 6 -14 -3 -4 9 -8 27 -8 30 -1
30 0 10 10 -13 5 -23 15 -23 21 0 6 5 5 12 -2 21 -21 32 -13 13 8 -17 18 -17
20 -2 14 15 -6 21 -17 18 -36 0 -4 8 -6 19 -5 20 1 24 9 20 37 -1 8 1 12 5 8
12 -11 14 -57 4 -64 -5 -3 -6 -11 -2 -17 3 -7 -3 -4 -15 7 -18 16 -24 17 -37
6 -9 -7 -14 -19 -11 -27 7 -18 -7 -16 -46 5 -18 11 -41 18 -51 16 -9 -1 -17 2
-17 8 0 7 -5 7 -13 -1 -10 -8 -17 -7 -25 1 -9 9 -12 9 -12 -1 0 -11 -3 -11
-14 -1 -8 6 -12 19 -9 28 6 15 3 14 -15 -2 -12 -10 -19 -23 -15 -29 4 -6 1 -7
-6 -2 -9 5 -9 11 -3 17 6 6 8 16 6 23 -4 9 4 12 25 11 16 0 27 -4 25 -8 -7
-11 10 -10 24 2 9 7 9 7 2 -2 -5 -7 -10 -17 -10 -22 1 -6 10 0 22 14 12 14 19
18 15 8 -3 -10 0 -19 10 -22 11 -4 14 -2 9 9 -3 8 -2 14 2 13 4 -1 19 5 35 12
26 13 27 14 10 34 l-18 21 23 -20 c21 -17 22 -20 7 -31z m305 31 c-7 -8 -16
-12 -21 -9 -5 3 -9 0 -9 -5 0 -6 -4 -11 -8 -11 -5 0 -9 6 -9 14 0 8 8 13 18
11 10 -2 21 0 24 6 4 5 9 9 12 9 3 0 0 -7 -7 -15z m-548 -9 c-14 -23 -10 -40
5 -18 16 23 38 29 47 13 4 -5 -3 -7 -14 -4 -12 3 -20 0 -20 -6 0 -7 4 -10 9
-6 16 9 22 -12 7 -24 -10 -8 -16 -9 -21 -1 -3 6 -11 8 -16 4 -15 -9 -39 28
-28 42 11 14 40 14 31 0z m322 6 c3 -5 -1 -9 -9 -9 -8 0 -12 4 -9 9 3 4 7 8 9
8 2 0 6 -4 9 -8z m-124 -22 c0 -5 -5 -10 -11 -10 -5 0 -7 5 -4 10 3 6 8 10 11
10 2 0 4 -4 4 -10z m365 0 c-3 -5 -14 -10 -23 -9 -14 0 -13 2 3 9 27 11 27 11
20 0z m350 -28 c-3 -3 -11 0 -18 7 -9 10 -8 11 6 5 10 -3 15 -9 12 -12z m-232
-9 c-7 -2 -19 -2 -25 0 -7 3 -2 5 12 5 14 0 19 -2 13 -5z m37 -3 c0 -5 -2 -10
-4 -10 -3 0 -8 5 -11 10 -3 6 -1 10 4 10 6 0 11 -4 11 -10z m65 0 c3 -6 -1 -7
-9 -4 -18 7 -21 14 -7 14 6 0 13 -4 16 -10z m51 -5 c-1 -8 -5 -17 -8 -21 -5
-4 -4 16 1 34 3 9 9 -1 7 -13z m-282 -20 c3 -8 1 -15 -4 -15 -6 0 -10 7 -10
15 0 8 2 15 4 15 2 0 6 -7 10 -15z m224 -10 c-3 -3 -9 2 -12 12 -6 14 -5 15 5
6 7 -7 10 -15 7 -18z m99 5 c-1 -11 -5 -20 -9 -20 -10 0 -10 4 -2 24 8 22 13
20 11 -4z m137 9 c3 -3 -5 -5 -19 -5 -13 0 -22 3 -19 7 4 8 30 6 38 -2z m-375
-22 c8 -10 7 -14 -2 -14 -8 0 -14 6 -14 14 0 7 1 13 2 13 2 0 8 -6 14 -13z
m417 -2 c-3 -8 0 -15 6 -15 6 0 9 -3 5 -6 -10 -11 -26 6 -20 21 3 8 7 15 10
15 3 0 3 -7 -1 -15z m-82 -10 c3 -8 1 -15 -4 -15 -6 0 -10 7 -10 15 0 8 2 15
4 15 2 0 6 -7 10 -15z m41 -6 c-4 -5 -12 -9 -18 -8 -9 0 -8 2 1 6 6 2 9 10 6
15 -4 7 -2 8 5 4 6 -4 9 -12 6 -17z m145 -23 c0 -6 -7 -1 -15 10 -8 10 -15 23
-15 28 0 6 7 1 15 -10 8 -10 15 -23 15 -28z m50 28 c0 -8 -19 -13 -24 -6 -3 5
1 9 9 9 8 0 15 -2 15 -3z m64 -30 c-4 -27 -3 -34 7 -29 8 5 10 4 5 -4 -12 -19
-27 -1 -22 27 2 15 5 30 5 35 1 4 3 7 6 7 3 0 2 -16 -1 -36z m52 -4 c0 -12 -4
-16 -9 -11 -5 5 -6 14 -3 20 10 15 12 14 12 -9z m159 10 c-3 -5 -12 -10 -18
-10 -7 0 -6 4 3 10 19 12 23 12 15 0z m-685 -19 c0 -5 -7 -14 -15 -21 -8 -7
-15 -10 -15 -7 0 3 -2 12 -5 19 -4 9 2 14 15 15 11 1 20 -2 20 -6z m857 -10
c0 -11 -5 -18 -9 -15 -4 3 -5 11 -1 19 7 21 12 19 10 -4z m-257 5 c0 -2 -6 -9
-14 -15 -11 -9 -16 -9 -22 0 -4 7 -3 9 4 5 6 -3 13 -2 17 4 6 10 15 14 15 6z
m-489 -23 c12 -16 12 -17 -2 -6 -9 7 -20 9 -24 5 -5 -4 -5 -1 -1 6 9 16 11 15
27 -5z m463 -22 c-5 -6 -34 20 -34 30 0 5 8 1 18 -8 10 -10 17 -20 16 -22z
m146 35 c0 -2 -7 -7 -16 -10 -8 -3 -12 -2 -9 4 6 10 25 14 25 6z m17 -33 c0
-9 -4 -10 -14 -2 -7 6 -13 12 -13 14 0 1 6 2 13 2 8 0 14 -6 14 -14z m320 -8
c0 -8 -4 -12 -9 -9 -5 3 -6 10 -3 15 9 13 12 11 12 -6z m-660 -52 c6 4 25 -6
42 -22 16 -15 33 -27 36 -25 3 2 1 -1 -5 -8 -6 -8 -5 -16 3 -26 10 -12 9 -14
-3 -10 -8 3 -14 13 -14 22 2 16 1 16 -16 1 -17 -15 -18 -15 -16 9 1 19 5 25
16 21 11 -5 12 -3 4 5 -6 6 -19 8 -28 4 -14 -5 -15 -9 -5 -15 8 -4 10 -11 6
-15 -8 -8 -38 27 -31 37 5 9 -32 40 -53 43 -10 2 -24 -1 -31 -7 -9 -7 -16 -6
-25 3 -7 7 -7 10 -2 7 6 -3 22 3 35 14 l25 19 26 -32 c14 -17 31 -28 36 -25z
m401 37 c-7 -10 -14 -17 -17 -15 -4 4 18 35 25 35 2 0 -1 -9 -8 -20z m179 -2
c2 -17 0 -19 -7 -8 -5 8 -6 18 -4 22 8 12 10 10 11 -14z m-377 -9 c0 -6 -4 -7
-10 -4 -5 3 -10 11 -10 16 0 6 5 7 10 4 6 -3 10 -11 10 -16z m235 12 c3 -5 2
-12 -3 -15 -5 -3 -9 1 -9 9 0 17 3 19 12 6z m-103 -19 c-3 -10 -1 -13 6 -8 7
4 12 5 12 2 0 -15 -20 -14 -29 2 -7 14 -6 19 4 19 7 0 11 -7 7 -15z m378 12
c0 -8 -19 -13 -24 -6 -3 5 1 9 9 9 8 0 15 -2 15 -3z m50 2 c0 -2 -7 -7 -16
-10 -8 -3 -12 -2 -9 4 6 10 25 14 25 6z m-440 -41 c14 -19 14 -19 -2 -6 -10 7
-18 18 -18 24 0 6 1 8 3 6 1 -2 9 -13 17 -24z m139 22 c-2 -1 -13 -9 -24 -17
-19 -14 -19 -14 -6 3 7 9 18 17 24 17 6 0 8 -1 6 -3z m341 -3 c0 -8 -19 -13
-24 -6 -3 5 1 9 9 9 8 0 15 -2 15 -3z m-290 -34 c7 -14 6 -18 -5 -16 -8 1 -18
6 -22 11 -4 4 -2 5 5 1 6 -4 12 -3 12 1 0 5 -6 15 -12 22 -10 11 -10 12 -1 7
7 -4 17 -15 23 -26z m68 5 c-3 -3 -9 2 -12 12 -6 14 -5 15 5 6 7 -7 10 -15 7
-18z m63 8 c13 -16 12 -17 -3 -4 -17 13 -22 21 -14 21 2 0 10 -8 17 -17z m119
13 c0 -2 -8 -10 -17 -17 -16 -13 -17 -12 -4 4 13 16 21 21 21 13z m-466 -15
c3 -5 -6 -8 -20 -8 -19 0 -22 2 -13 8 18 11 26 11 33 0z m64 -5 c-7 -8 -15
-12 -17 -11 -5 6 10 25 20 25 5 0 4 -6 -3 -14z m107 4 c-3 -5 -12 -10 -18 -10
-7 0 -6 4 3 10 19 12 23 12 15 0z m93 -13 c8 -10 6 -13 -11 -14 -12 0 -16 1
-9 4 6 3 10 9 6 14 -8 14 2 11 14 -4z m38 -21 c0 -14 -5 -21 -9 -17 -4 4 -5
15 -1 24 9 24 12 21 10 -7z m37 -1 c-7 -21 -12 -19 -10 4 0 11 5 18 9 15 4 -3
5 -11 1 -19z m-158 4 c11 -16 1 -19 -13 -3 -7 8 -8 14 -3 14 5 0 13 -5 16 -11z
m364 -2 c8 -10 7 -14 -2 -14 -8 0 -14 6 -14 14 0 7 1 13 2 13 2 0 8 -6 14 -13z
m236 3 c-4 -6 -1 -19 6 -28 12 -16 12 -16 -5 0 -16 14 -15 38 0 38 3 0 2 -5
-1 -10z m-913 -15 c16 -9 18 -14 18 -33 0 -5 6 -9 13 -10 36 -3 52 -11 49 -25
-2 -11 4 -15 22 -13 29 3 56 23 56 41 0 7 10 13 23 14 54 2 77 7 89 20 11 11
9 12 -12 7 -20 -6 -22 -5 -8 4 9 5 23 7 32 4 13 -5 12 -9 -7 -24 -12 -10 -18
-22 -14 -26 4 -5 13 -2 18 6 9 12 10 12 5 -3 -5 -14 -2 -17 12 -13 13 4 23 -1
32 -19 7 -13 17 -22 21 -19 5 2 0 19 -11 36 -22 36 -18 48 13 47 21 -1 21 -1
-2 -8 -22 -6 -23 -8 -8 -23 9 -8 13 -18 10 -22 -4 -3 -1 -6 6 -6 8 0 10 -8 6
-22 -7 -21 -6 -22 10 -7 16 16 16 18 0 43 -10 14 -13 26 -9 26 5 0 15 -14 22
-30 13 -28 12 -32 -10 -50 -12 -11 -18 -19 -11 -20 6 0 14 4 18 10 3 5 12 7
20 3 10 -3 14 0 12 8 -2 8 -2 11 0 6 3 -4 9 -5 14 -1 5 3 9 0 9 -5 0 -6 -5
-11 -12 -11 -6 0 -4 -6 6 -13 17 -13 17 -14 1 -30 -9 -9 -12 -17 -6 -17 14 0
33 38 25 51 -3 6 8 3 25 -6 18 -9 29 -20 26 -25 -4 -6 -2 -10 4 -10 20 0 21
20 1 32 -11 7 -20 17 -20 22 0 4 7 3 15 -4 13 -10 19 -10 34 4 16 15 20 15 31
1 7 -8 16 -12 21 -9 5 3 6 -3 2 -13 -5 -14 -3 -16 7 -6 18 17 44 -15 28 -34
-17 -21 7 -15 26 6 12 14 28 18 59 16 54 -3 53 -3 39 -17 -20 -20 -13 -32 8
-13 15 13 17 21 9 31 -8 9 -5 16 11 24 12 6 24 9 27 7 2 -3 -5 -8 -16 -12 -12
-3 -19 -10 -16 -15 3 -5 13 -6 23 -3 13 4 13 2 -3 -10 -11 -8 -16 -19 -12 -23
4 -5 13 -2 18 6 9 12 10 12 5 -3 -4 -14 -1 -16 18 -11 16 4 25 0 30 -11 3 -10
12 -15 21 -11 8 3 15 1 15 -5 0 -6 5 -7 12 -3 7 4 8 3 4 -4 -4 -7 -5 -12 -2
-12 2 0 13 -3 23 -7 16 -6 16 -5 5 10 -19 22 -6 42 16 25 13 -11 15 -11 10 3
-4 10 4 28 20 46 15 16 28 32 29 36 5 22 11 29 10 11 -2 -19 -10 -30 -45 -69
-7 -8 -12 -15 -10 -16 31 -7 39 -6 34 6 -3 9 0 12 10 8 13 -5 12 -8 -3 -26
-13 -14 -14 -19 -4 -15 8 2 19 12 25 22 9 13 7 20 -7 30 -15 12 -15 14 -2 19
8 4 14 3 14 -1 -2 -15 14 -52 23 -52 5 0 6 5 2 11 -5 8 -1 8 14 0 12 -6 24
-16 27 -21 4 -6 11 -7 17 -4 5 4 5 -4 -2 -16 -10 -19 -10 -22 2 -17 8 3 15 0
16 -6 0 -7 3 -22 6 -35 3 -12 1 -20 -3 -17 -5 3 -11 -1 -14 -8 -7 -18 -62 -16
-62 2 0 8 7 17 15 19 13 5 13 3 1 -11 -9 -11 -10 -17 -2 -17 6 0 11 5 11 11 0
5 4 8 9 5 4 -3 17 1 27 9 10 8 14 15 9 15 -6 0 -17 -6 -24 -12 -9 -8 -11 -8
-8 -2 4 7 -2 23 -13 35 -11 13 -19 18 -20 12 0 -7 -3 -12 -7 -12 -20 3 -30 -2
-30 -17 0 -14 2 -14 14 2 7 10 13 13 13 7 0 -7 -5 -15 -10 -18 -6 -4 -8 -11
-4 -16 3 -6 -2 -16 -12 -23 -13 -10 -14 -15 -4 -21 9 -6 11 -4 5 5 -5 9 -4 11
4 6 15 -9 3 -29 -14 -22 -7 2 -17 0 -23 -6 -7 -7 -14 -3 -22 12 -10 18 -9 21
2 17 7 -2 12 -10 10 -16 -1 -7 2 -10 8 -6 6 3 8 10 5 15 -3 5 2 13 11 18 15 8
14 11 -5 25 -16 11 -19 16 -9 20 7 3 -2 4 -20 1 -31 -4 -33 -3 -27 18 5 19 3
18 -10 -4 -9 -16 -21 -28 -28 -28 -8 0 -8 -3 2 -9 9 -6 10 -11 2 -15 -6 -4
-11 -3 -11 3 0 5 -9 8 -20 6 -11 -2 -18 0 -15 5 4 7 -17 7 -35 0 -3 -1 -9 -2
-13 -1 -5 1 -6 -2 -3 -7 3 -5 -1 -9 -9 -9 -7 0 -12 8 -10 19 2 10 1 18 -3 19
-4 0 -15 2 -25 4 -9 2 -15 -1 -11 -6 3 -5 -1 -9 -8 -10 -10 0 -10 -2 0 -6 6
-2 12 -10 12 -16 0 -8 -4 -7 -12 1 -15 15 -49 -13 -42 -33 3 -7 0 -16 -6 -20
-15 -9 -42 15 -36 31 3 7 1 16 -4 19 -5 3 -6 13 -3 22 4 10 2 14 -5 9 -6 -3
-13 -2 -16 3 -10 15 -41 5 -40 -13 1 -9 -2 -16 -8 -16 -5 0 -6 -5 -2 -12 5 -7
3 -8 -5 -4 -7 5 -10 15 -7 23 4 9 1 23 -6 31 -11 13 -11 14 2 7 12 -6 12 -5 3
5 -6 7 -10 18 -9 24 2 6 1 8 -1 4 -7 -12 -23 -9 -21 3 2 6 -4 14 -12 16 -12 4
-12 3 -1 -5 9 -7 10 -12 2 -16 -6 -4 -11 -2 -11 3 0 6 -5 11 -11 11 -5 0 -7
-5 -3 -12 5 -7 3 -8 -6 -3 -7 4 -22 9 -34 9 -11 1 -20 7 -19 13 2 7 -6 10 -17
8 -12 -2 -18 0 -15 6 4 5 11 7 16 4 5 -4 9 -2 9 2 0 5 -9 14 -20 21 -18 11
-19 10 -17 -9 1 -14 -4 -23 -16 -25 -26 -4 -27 -7 -11 -22 9 -8 14 -9 14 -2 0
6 5 8 10 5 7 -4 6 -13 -1 -27 -8 -16 -8 -19 1 -13 8 5 11 3 9 -4 -6 -16 -24
-10 -24 7 0 8 -11 22 -24 33 -13 10 -17 19 -10 19 8 0 5 6 -7 14 -14 11 -21
11 -26 3 -5 -8 -8 -7 -9 3 0 10 -3 8 -8 -5 -5 -12 -4 -26 2 -33 12 -15 17 -52
7 -52 -4 0 -17 11 -30 25 -14 15 -30 23 -41 20 -20 -7 -34 22 -19 40 11 14 -5
33 -17 21 -4 -3 -15 1 -25 11 -10 9 -18 13 -18 8 0 -4 -7 -2 -15 5 -19 16 -19
27 0 27 9 0 14 -6 11 -14 -5 -11 -1 -11 16 -2 18 10 24 8 41 -15 15 -21 22
-24 33 -15 9 8 14 8 14 1 0 -6 -10 -18 -22 -27 -13 -10 -17 -15 -9 -13 8 2 23
-4 33 -14 10 -10 24 -18 31 -17 6 0 2 5 -10 11 -13 6 -23 15 -23 20 0 5 4 7 9
3 5 -3 13 0 17 6 3 6 1 15 -7 19 -10 7 -10 12 2 26 8 10 9 15 2 11 -6 -4 -14
-3 -18 3 -4 6 -11 7 -17 4 -6 -4 -8 -2 -5 3 4 6 -1 10 -11 9 -10 0 -16 5 -14
13 3 12 0 12 -13 1 -21 -17 -31 -5 -14 17 13 17 13 17 -6 3 -18 -14 -19 -13
-8 1 10 13 10 16 -2 16 -8 0 -12 -4 -9 -8 2 -4 -5 -6 -16 -4 -11 2 -19 1 -16
-3 2 -4 -2 -18 -10 -32 -13 -21 -14 -22 -9 -4 4 15 0 24 -11 28 -18 7 -37 -1
-29 -14 3 -5 1 -11 -5 -15 -5 -3 -10 -2 -10 4 0 5 -10 8 -23 5 -25 -4 -33 20
-15 43 7 8 4 20 -6 35 -9 12 -16 17 -16 10 0 -6 -5 -12 -11 -12 -5 0 -8 4 -5
9 6 9 -22 26 -38 22 -5 -1 -4 4 3 12 13 16 27 17 53 2z m538 5 c0 -5 -2 -10
-4 -10 -3 0 -8 5 -11 10 -3 6 -1 10 4 10 6 0 11 -4 11 -10z m-135 -18 c-3 -3
-11 0 -18 7 -9 10 -8 11 6 5 10 -3 15 -9 12 -12z m191 -7 c0 -14 -4 -25 -8
-25 -6 0 -5 25 1 48 3 10 7 -2 7 -23z m-35 1 c-6 -7 -9 -22 -5 -32 5 -18 5
-18 -6 -1 -9 14 -9 22 0 33 7 7 15 14 17 14 3 0 0 -6 -6 -14z m79 10 c0 -2 -7
-7 -16 -10 -8 -3 -12 -2 -9 4 6 10 25 14 25 6z m210 -1 c0 -1 -10 -11 -23 -23
-17 -17 -24 -18 -24 -8 0 8 5 14 11 13 6 -1 10 3 9 9 -1 6 5 11 13 11 8 0 14
-1 14 -2z m110 -5 c0 -5 -2 -10 -4 -10 -3 0 -8 5 -11 10 -3 6 -1 10 4 10 6 0
11 -4 11 -10z m76 -16 c1 -9 0 -13 -3 -10 -4 3 -13 0 -22 -6 -12 -10 -12 -7 2
8 9 11 15 24 12 27 -3 4 -2 5 2 2 4 -3 8 -13 9 -21z m-578 -1 c-1 -10 1 -19 5
-20 19 -7 25 -1 21 20 -4 20 -4 21 5 2 6 -14 5 -23 -4 -30 -6 -6 -11 -21 -9
-35 1 -14 0 -19 -2 -12 -3 6 -10 10 -15 6 -5 -3 -9 0 -9 5 0 6 5 11 12 11 7 0
6 6 -4 18 -13 15 -14 52 -2 52 3 0 4 -8 2 -17z m234 5 c-15 -15 -52 -21 -52
-9 0 6 9 8 20 6 11 -2 22 0 25 6 4 5 9 9 13 9 3 0 1 -5 -6 -12z m-278 -13 c-4
-8 -8 -15 -10 -15 -2 0 -4 7 -4 15 0 8 4 15 10 15 5 0 7 -7 4 -15z m498 4 c2
-2 1 -3 -1 -2 -2 2 -9 -2 -16 -7 -8 -7 -12 -5 -12 4 0 12 22 16 29 5z m-376
-21 c4 -7 3 -8 -4 -4 -7 4 -12 2 -12 -3 0 -6 -5 -11 -11 -11 -8 0 -8 5 1 15
15 18 17 18 26 3z m444 8 c0 -2 -7 -7 -16 -10 -8 -3 -12 -2 -9 4 6 10 25 14
25 6z m-405 -25 c-3 -6 -11 -11 -16 -11 -5 0 -4 6 3 14 14 16 24 13 13 -3z
m46 5 c5 3 9 0 9 -6 0 -15 -23 -7 -26 8 -1 7 0 8 3 2 2 -5 9 -8 14 -4z m169
-21 c0 -5 -5 -3 -10 5 -5 8 -10 20 -10 25 0 6 5 3 10 -5 5 -8 10 -19 10 -25z
m-815 15 c3 -5 1 -10 -4 -10 -6 0 -11 5 -11 10 0 6 2 10 4 10 3 0 8 -4 11 -10z
m465 0 c0 -5 -7 -7 -15 -4 -8 4 -15 8 -15 10 0 2 7 4 15 4 8 0 15 -4 15 -10z
m320 6 c0 -3 -4 -8 -10 -11 -5 -3 -10 -1 -10 4 0 6 5 11 10 11 6 0 10 -2 10
-4z m87 -18 c-3 -8 -6 -5 -6 6 -1 11 2 17 5 13 3 -3 4 -12 1 -19z m-192 2 c-4
-6 3 -9 16 -7 16 1 22 -4 25 -23 3 -18 2 -21 -5 -10 -5 8 -7 18 -4 24 4 5 -1
7 -11 3 -21 -8 -39 0 -31 14 4 5 8 9 11 9 3 0 2 -4 -1 -10z m70 -8 c-3 -3 -11
0 -18 7 -9 10 -8 11 6 5 10 -3 15 -9 12 -12z m150 9 c3 -5 2 -12 -3 -15 -5 -3
-9 1 -9 9 0 17 3 19 12 6z m179 -7 c3 -8 2 -12 -4 -9 -6 3 -10 10 -10 16 0 14
7 11 14 -7z m-522 -6 c-7 -7 -16 -7 -28 0 -14 8 -13 10 10 10 18 0 24 -4 18
-10z m68 2 c0 -5 -4 -10 -10 -10 -5 0 -10 5 -10 10 0 6 5 10 10 10 6 0 10 -4
10 -10z m335 -20 c-3 -15 2 -20 16 -20 11 0 18 4 15 8 -3 5 4 16 15 25 10 9
19 13 19 7 0 -5 -8 -13 -17 -19 -10 -5 -17 -13 -15 -18 1 -4 -7 -8 -18 -8 -11
0 -20 4 -19 9 0 5 -5 13 -13 17 -10 7 -10 9 0 9 7 0 10 5 6 12 -4 6 -3 8 4 4
6 -3 9 -15 7 -26z m-764 -2 c11 -20 10 -21 -3 -11 -8 7 -18 10 -21 6 -4 -3 -7
-2 -7 4 0 9 10 23 16 23 2 0 9 -10 15 -22z m469 2 c0 -5 -7 -7 -15 -4 -8 4
-15 8 -15 10 0 2 7 4 15 4 8 0 15 -4 15 -10z m93 -7 c-3 -7 -6 -13 -8 -13 -2
0 -5 6 -8 13 -3 8 1 14 8 14 7 0 11 -6 8 -14z m18 -6 c-10 -9 -11 -8 -5 6 3
10 9 15 12 12 3 -3 0 -11 -7 -18z m95 8 c4 -8 10 -13 14 -10 4 3 15 -6 24 -20
9 -14 12 -25 6 -25 -5 0 -10 5 -10 12 0 9 -3 9 -12 0 -7 -7 -17 -12 -22 -12
-6 0 -3 5 7 11 9 5 17 15 17 20 0 6 -4 8 -8 5 -5 -3 -16 4 -25 15 -9 10 -12
19 -7 19 6 0 13 -7 16 -15z m54 5 c0 -5 -4 -10 -10 -10 -5 0 -10 5 -10 10 0 6
5 10 10 10 6 0 10 -4 10 -10z m137 -12 c-3 -8 -6 -5 -6 6 -1 11 2 17 5 13 3
-3 4 -12 1 -19z m-361 0 c4 -7 3 -8 -4 -4 -7 4 -12 2 -12 -3 0 -6 -5 -11 -11
-11 -8 0 -8 5 1 15 15 18 17 18 26 3z m-424 -22 c3 3 9 -1 14 -8 4 -7 4 -10
-1 -6 -4 4 -14 3 -20 -2 -9 -7 -17 -3 -29 15 l-17 26 24 -15 c13 -9 26 -14 29
-10z m581 11 c3 -8 2 -20 -3 -26 -5 -9 -7 -4 -7 13 0 29 2 32 10 13z m87 -18
c0 -6 -4 -7 -10 -4 -5 3 -10 11 -10 16 0 6 5 7 10 4 6 -3 10 -11 10 -16z m144
6 c-19 -14 -18 -14 4 -15 12 0 22 -4 22 -9 0 -11 -38 -2 -46 11 -4 6 0 14 7
19 23 15 34 10 13 -6z m-109 -15 c-9 -14 -65 -42 -65 -33 0 5 15 16 33 25 39
20 40 20 32 8z m-681 -28 c3 -5 -1 -9 -9 -9 -8 0 -12 4 -9 9 3 4 7 8 9 8 2 0
6 -4 9 -8z m606 -2 c0 -5 -2 -10 -4 -10 -3 0 -8 5 -11 10 -3 6 -1 10 4 10 6 0
11 -4 11 -10z m-439 -37 c8 -5 21 -11 29 -12 8 0 29 -3 45 -5 17 -2 34 -4 39
-5 5 -1 6 -4 3 -7 -3 -4 -2 -15 3 -25 12 -21 -14 -53 -36 -45 -18 7 -45 -4
-38 -15 3 -5 -3 -9 -12 -9 -16 0 -16 1 1 20 17 19 17 21 -9 45 -15 14 -24 30
-20 37 4 6 3 8 -4 5 -5 -4 -8 -16 -5 -27 3 -11 0 -20 -6 -20 -6 0 -12 9 -12
20 -2 28 -3 33 -12 47 -9 14 15 12 34 -4z m643 -49 c3 -9 2 -12 -5 -9 -5 4
-17 1 -26 -7 -15 -12 -15 -11 -2 10 16 26 25 28 33 6z m-300 -38 c2 -15 -1
-23 -7 -19 -6 3 -7 1 -3 -6 4 -6 12 -9 17 -6 5 4 9 1 9 -4 0 -15 -21 -13 -43
3 -16 12 -16 14 -1 20 9 3 14 12 11 20 -6 14 2 30 10 22 3 -2 6 -16 7 -30z
m200 17 c25 -14 13 -31 -19 -28 -14 2 -25 -2 -25 -8 0 -7 -5 -6 -11 3 -8 12
-9 11 -4 -6 3 -14 -1 -26 -12 -35 -10 -7 -15 -9 -11 -5 5 5 -1 16 -12 23 -11
8 -18 18 -16 22 7 11 -27 10 -41 -2 -7 -5 -13 -14 -13 -19 0 -5 6 -8 13 -5 6
2 11 10 9 17 -1 6 3 10 10 7 7 -2 12 -10 11 -16 -2 -6 2 -10 8 -8 6 1 14 -4
16 -11 4 -11 1 -12 -16 -3 -12 7 -27 8 -34 4 -6 -4 -19 -8 -27 -8 -8 0 -14 -6
-12 -12 3 -18 -13 -16 -28 2 -7 8 -16 12 -21 9 -5 -3 -9 -1 -9 5 0 17 20 23
26 7 10 -26 47 0 38 26 -4 13 -2 18 4 14 6 -3 17 0 25 8 8 8 18 12 22 8 6 -7
10 -8 36 -11 5 0 8 -5 5 -10 -3 -5 2 -15 12 -22 14 -11 15 -11 5 1 -10 11 -9
17 4 32 9 10 13 18 9 18 -4 0 -5 4 -2 8 7 11 36 9 60 -5z m-349 -33 c3 -5 1
-10 -4 -10 -6 0 -11 5 -11 10 0 6 2 10 4 10 3 0 8 -4 11 -10z m-45 -20 c0 -5
-2 -10 -4 -10 -3 0 -8 5 -11 10 -3 6 -1 10 4 10 6 0 11 -4 11 -10z m370 0 c0
-5 -4 -10 -10 -10 -5 0 -10 5 -10 10 0 6 5 10 10 10 6 0 10 -4 10 -10z"/>
<path d="M3050 2020 c-6 -11 -7 -20 -3 -19 4 1 10 0 13 -1 3 -1 12 -3 20 -5 8
-1 20 -4 27 -6 6 -2 13 0 15 6 1 5 -6 10 -17 10 -11 0 -20 6 -20 14 0 23 -23
24 -35 1z m24 -6 c3 -8 2 -12 -4 -9 -6 3 -10 10 -10 16 0 14 7 11 14 -7z"/>
<path d="M3176 2008 c3 -5 10 -6 15 -3 13 9 11 12 -6 12 -8 0 -12 -4 -9 -9z"/>
<path d="M2825 2071 c-3 -5 -2 -12 3 -15 5 -3 9 1 9 9 0 17 -3 19 -12 6z"/>
<path d="M2866 2038 c3 -5 10 -6 15 -3 13 9 11 12 -6 12 -8 0 -12 -4 -9 -9z"/>
<path d="M3976 1852 c-3 -5 1 -9 9 -9 8 0 12 4 9 9 -3 4 -7 8 -9 8 -2 0 -6 -4
-9 -8z"/>
<path d="M4174 1752 c4 -3 14 -7 22 -8 9 -1 13 0 10 4 -4 3 -14 7 -22 8 -9 1
-13 0 -10 -4z"/>
<path d="M4417 1719 c-9 -5 -22 -7 -27 -4 -6 4 -7 -1 -3 -11 4 -11 2 -15 -4
-11 -6 4 -17 -1 -24 -11 -12 -15 -12 -16 1 -6 17 12 30 12 48 0 11 -6 11 -11
0 -24 -11 -13 -11 -14 2 -7 8 5 26 10 40 11 39 2 42 3 35 14 -4 7 -13 7 -26 0
-24 -13 -43 -4 -35 17 5 11 2 14 -11 9 -16 -5 -16 -4 1 8 14 12 22 12 37 3 13
-8 15 -14 6 -20 -8 -6 -6 -7 5 -3 10 3 20 1 23 -4 4 -6 12 -10 18 -10 7 0 -4
14 -23 30 -40 33 -39 33 -63 19z"/>
<path d="M4433 1690 c-1 -11 2 -20 7 -20 4 0 7 7 6 15 -3 23 -12 26 -13 5z"/>
<path d="M4259 1691 c-1 -3 -1 -9 0 -13 0 -5 -7 -8 -16 -8 -17 -1 -17 -1 0
-11 11 -7 23 -7 35 0 11 7 13 10 3 11 -10 0 -11 3 -2 13 8 10 7 14 -4 14 -8 0
-16 -3 -16 -6z"/>
<path d="M4513 1681 c1 -22 12 -28 21 -12 3 5 -1 14 -9 21 -11 9 -14 8 -12 -9z"/>
<path d="M4310 1666 c0 -2 7 -7 16 -10 8 -3 12 -2 9 4 -6 10 -25 14 -25 6z"/>
<path d="M4486 1652 c-2 -1 -14 -5 -26 -7 -12 -2 -25 -7 -29 -11 -3 -4 2 -4
11 -1 9 3 22 -1 28 -8 7 -8 15 -14 18 -13 19 2 23 -4 12 -17 -13 -16 -12 -17
18 -19 9 -1 23 -5 30 -9 6 -5 12 -5 12 0 0 4 4 2 9 -6 7 -10 13 -11 27 -2 12
6 14 11 5 11 -11 0 -11 3 -1 15 7 8 16 13 20 10 4 -3 13 1 19 9 8 10 5 15 -14
24 -21 10 -26 8 -35 -9 -6 -10 -9 -23 -6 -28 3 -4 -1 -8 -9 -8 -10 0 -11 5 -4
18 6 12 5 20 -1 24 -6 4 -8 11 -5 16 4 5 1 10 -4 10 -25 3 -73 4 -75 1z m34
-17 c8 0 17 3 20 7 3 4 11 -2 19 -13 7 -13 8 -18 1 -14 -7 4 -9 -2 -6 -20 4
-20 2 -24 -7 -17 -7 5 -20 8 -30 7 -14 -3 -16 0 -7 9 10 13 -4 34 -23 34 -5 0
-12 4 -15 8 -4 4 -1 4 6 0 7 -4 12 -2 12 6 0 8 3 9 8 3 4 -5 14 -10 22 -10z
m108 -19 c-2 -1 -12 -8 -23 -16 -18 -14 -19 -13 -8 1 7 9 10 19 6 23 -4 4 1 4
10 0 10 -3 17 -7 15 -8z"/>
<path d="M4519 1617 c6 -8 9 -16 6 -19 -3 -2 1 -5 9 -5 11 0 12 4 3 19 -7 10
-16 18 -21 18 -4 0 -3 -6 3 -13z"/>
<path d="M4751 1636 c-7 -8 -10 -20 -7 -25 4 -5 2 -12 -4 -16 -16 -10 -11 -21
11 -22 18 -2 19 0 8 15 -11 14 -11 15 1 5 8 -7 19 -13 25 -13 5 1 0 9 -12 19
-12 10 -19 21 -16 25 3 3 13 -3 21 -15 8 -11 20 -18 29 -15 9 4 11 2 7 -5 -4
-7 -2 -10 5 -8 17 6 14 24 -3 24 -8 0 -22 11 -33 24 -17 21 -20 21 -32 7z"/>
<path d="M4675 1610 c-4 -6 -3 -10 2 -10 4 0 0 -5 -9 -11 -14 -8 -15 -14 -6
-34 6 -13 15 -22 20 -19 5 3 4 12 -3 20 -9 11 -9 14 0 14 7 0 10 4 6 9 -3 6 2
14 11 19 15 8 15 10 0 15 -8 3 -18 2 -21 -3z"/>
<path d="M4390 1601 c0 -6 4 -12 8 -15 5 -3 9 1 9 9 0 8 -4 15 -9 15 -4 0 -8
-4 -8 -9z"/>
<path d="M4862 1577 c-16 -16 -23 -17 -41 -7 -18 9 -27 8 -47 -5 -14 -9 -24
-11 -24 -5 0 6 -4 9 -9 6 -5 -3 -14 1 -21 9 -19 23 -26 18 -26 -15 0 -34 0
-34 27 -19 13 7 24 7 32 1 7 -6 17 -12 22 -14 6 -1 11 -7 11 -13 1 -5 3 -14 4
-20 1 -5 2 -14 1 -19 -1 -5 4 -5 11 0 11 9 32 11 41 5 11 -9 47 -9 47 1 0 16
13 1 16 -18 2 -10 -3 -14 -11 -10 -20 7 -27 -10 -10 -24 12 -10 20 -6 47 21
18 19 38 34 43 34 17 2 46 -16 40 -25 -4 -7 24 -7 33 0 7 6 28 5 38 -2 6 -4
20 2 34 14 l22 21 -23 18 c-13 10 -31 19 -40 19 -9 0 -20 7 -23 16 -4 10 -12
14 -22 10 -8 -3 -25 -1 -36 5 -14 8 -23 8 -31 0 -8 -8 -15 -6 -27 4 -15 14
-19 14 -29 1 -10 -12 -9 -15 6 -14 25 1 46 -5 56 -17 5 -6 6 -1 3 10 -5 17 -3
16 13 -5 11 -13 17 -28 15 -32 -3 -4 2 -5 11 -2 14 6 14 9 -2 28 -18 21 -18
21 4 3 12 -11 27 -16 34 -11 7 4 10 3 5 -4 -4 -6 3 -9 19 -8 14 2 22 -1 18 -7
-3 -6 -1 -7 4 -4 6 4 14 0 17 -9 4 -9 2 -13 -5 -8 -6 4 -16 0 -21 -7 -8 -11
-8 -10 -4 4 4 12 2 17 -6 14 -7 -2 -12 -10 -10 -16 2 -9 -4 -8 -18 2 -12 8
-30 13 -41 10 -10 -3 -19 -1 -19 4 0 5 -7 10 -15 10 -8 0 -15 -5 -15 -11 0 -6
-5 -4 -10 4 -9 13 -10 13 -11 0 -1 -8 -1 -18 0 -22 0 -4 -7 -4 -16 -1 -11 4
-13 8 -5 11 7 2 12 8 12 14 0 7 -4 7 -12 1 -7 -6 -21 -9 -31 -8 -10 2 -14 -1
-11 -7 4 -7 2 -8 -5 -4 -6 4 -8 12 -5 18 4 7 2 8 -4 4 -8 -5 -10 -1 -6 11 5
15 4 16 -5 3 -6 -8 -11 -11 -11 -6 0 5 -7 3 -15 -4 -15 -12 -16 -11 -19 11 0
6 -9 16 -19 24 -15 11 -16 13 -2 19 23 8 69 -15 53 -27 -9 -6 -8 -7 5 -3 10 3
20 0 23 -8 3 -8 12 -13 19 -12 27 4 25 13 -5 26 -27 11 -33 30 -9 30 6 0 8 -4
5 -9 -3 -5 1 -12 9 -15 13 -4 13 -2 5 14 -7 13 -7 21 2 26 7 4 8 3 4 -4 -4 -7
-3 -12 3 -12 5 0 12 4 16 10 3 5 12 7 19 4 8 -3 17 -1 20 4 11 19 -72 9 -92
-11z m-137 -17 c3 -5 1 -10 -4 -10 -6 0 -11 5 -11 10 0 6 2 10 4 10 3 0 8 -4
11 -10z m126 -67 c12 -16 12 -17 -2 -6 -9 7 -20 9 -24 5 -5 -4 -5 -1 -1 6 9
16 11 15 27 -5z m191 -17 c7 4 8 2 4 -5 -9 -13 -26 -5 -25 12 0 9 2 8 6 -1 2
-6 10 -9 15 -6z m-112 -15 c0 -6 -4 -12 -8 -15 -5 -3 -9 1 -9 9 0 8 4 15 9 15
4 0 8 -4 8 -9z"/>
<path d="M4803 1542 c10 -10 15 -22 12 -25 -3 -4 -2 -4 3 -1 17 13 2 43 -22
44 -5 0 -2 -8 7 -18z"/>
<path d="M4919 1545 c-1 -3 -2 -8 -3 -12 -1 -5 -5 -15 -11 -23 -8 -13 -7 -13
8 -1 9 7 17 10 17 5 0 -5 5 -2 10 6 5 8 10 10 10 5 0 -6 11 -11 24 -11 14 0
22 4 19 9 -3 4 -7 6 -10 3 -3 -3 -18 1 -34 10 -16 8 -30 12 -30 9z"/>
<path d="M5140 1544 c0 -6 7 -17 15 -24 9 -7 14 -19 11 -25 -3 -8 6 -12 22
-11 15 1 27 -4 27 -11 0 -7 7 -18 15 -25 12 -11 12 -11 4 2 -6 8 -9 21 -8 28
1 6 2 16 3 20 0 5 7 9 14 9 6 0 19 4 28 7 10 5 20 -2 29 -18 7 -14 17 -23 23
-19 5 3 2 10 -7 15 -9 5 -14 14 -10 19 18 31 -47 47 -80 20 -17 -14 -40 -6
-30 11 4 6 -3 5 -16 -2 -18 -10 -24 -9 -31 1 -5 8 -9 9 -9 3z m154 -12 c2 -4
-4 -8 -14 -8 -10 0 -16 4 -14 8 3 4 9 8 14 8 5 0 11 -4 14 -8z m-88 -24 c19
-23 19 -23 -2 -5 -11 9 -24 14 -29 10 -4 -5 -5 -2 -1 5 9 16 10 16 32 -10z
m44 14 c0 -5 -7 -9 -15 -9 -8 0 -12 4 -9 9 3 4 9 8 15 8 5 0 9 -4 9 -8z"/>
<path d="M5030 1505 c0 -7 30 -13 34 -7 3 4 -4 9 -15 9 -10 1 -19 0 -19 -2z"/>
<path d="M4633 1515 c0 -8 4 -12 9 -9 5 3 6 10 3 15 -9 13 -12 11 -12 -6z"/>
<path d="M4679 1509 c0 -2 -2 -12 -4 -21 -2 -10 1 -18 6 -18 5 0 9 5 9 12 0 6
3 8 8 4 7 -7 8 -12 11 -38 0 -6 4 -8 8 -5 3 4 13 1 22 -6 14 -11 15 -10 1 7
-14 18 -13 18 10 13 14 -4 19 -4 12 -1 -6 3 -10 10 -7 15 4 5 -2 6 -12 2 -15
-6 -16 -4 -6 8 10 13 10 16 -2 16 -8 0 -12 -4 -9 -9 9 -14 -9 -9 -28 9 -10 9
-18 14 -19 12z"/>
<path d="M5143 1447 c0 -8 6 -14 14 -14 9 0 10 4 2 14 -6 7 -12 13 -14 13 -1
0 -2 -6 -2 -13z"/>
<path d="M5170 1456 c0 -2 8 -10 18 -17 15 -13 16 -12 3 4 -13 16 -21 21 -21
13z"/>
<path d="M725 7311 c-3 -5 -2 -12 3 -15 5 -3 9 1 9 9 0 17 -3 19 -12 6z"/>
<path d="M6295 6761 c-3 -5 -2 -12 3 -15 5 -3 9 1 9 9 0 17 -3 19 -12 6z"/>
<path d="M4613 5955 c0 -8 4 -12 9 -9 5 3 6 10 3 15 -9 13 -12 11 -12 -6z"/>
<path d="M6870 5726 c0 -2 7 -9 15 -16 13 -11 14 -10 9 4 -5 14 -24 23 -24 12z"/>
<path d="M3195 5570 c3 -5 8 -10 11 -10 2 0 4 5 4 10 0 6 -5 10 -11 10 -5 0
-7 -4 -4 -10z"/>
<path d="M1740 4220 c0 -5 5 -10 11 -10 5 0 7 5 4 10 -3 6 -8 10 -11 10 -2 0
-4 -4 -4 -10z"/>
<path d="M8285 2640 c3 -5 8 -10 11 -10 2 0 4 5 4 10 0 6 -5 10 -11 10 -5 0
-7 -4 -4 -10z"/>
<path d="M8190 2581 c0 -6 4 -13 10 -16 6 -3 7 1 4 9 -7 18 -14 21 -14 7z"/>
<path d="M8155 2559 c-4 -6 -4 -13 -1 -16 3 -4 6 -1 6 7 0 10 3 10 15 0 13
-11 14 -10 9 4 -7 18 -20 21 -29 5z"/>
<path d="M7937 2533 c-13 -13 -20 -14 -29 -5 -8 8 -15 9 -25 1 -7 -7 -13 -8
-13 -4 0 4 -7 1 -17 -6 -13 -11 -17 -12 -21 -1 -3 10 -8 10 -26 -1 -18 -13
-25 -13 -40 -1 -19 14 -41 10 -31 -6 3 -5 13 -6 21 -3 10 4 15 1 13 -8 -3 -20
11 -49 24 -49 5 0 2 9 -8 20 -10 11 -13 20 -7 20 6 0 13 -4 16 -9 9 -14 58
-10 52 5 -3 8 0 11 9 7 8 -3 12 -9 9 -14 -3 -5 0 -9 6 -9 7 0 9 8 5 21 -7 20
-6 20 18 4 21 -13 27 -14 38 -2 8 7 28 12 45 11 48 -2 64 11 40 33 -10 10 -16
13 -12 6 9 -17 -17 -22 -35 -7 -13 12 -18 11 -32 -3z m33 -14 c0 -6 -6 -9 -12
-6 -7 2 -21 -2 -30 -11 -12 -10 -18 -11 -18 -4 0 7 -3 11 -7 11 -17 -3 -24 2
-18 11 5 8 11 7 21 -1 12 -10 18 -9 31 4 17 16 33 14 33 -4z m45 1 c-3 -5 -12
-10 -18 -10 -7 0 -6 4 3 10 19 12 23 12 15 0z m-182 -24 c4 -9 -2 -12 -16 -11
-29 3 -29 3 -22 15 9 14 32 12 38 -4z"/>
<path d="M8100 2520 c0 -5 7 -7 15 -4 8 4 15 8 15 10 0 2 -7 4 -15 4 -8 0 -15
-4 -15 -10z"/>
<path d="M8159 2513 c-13 -16 -12 -17 4 -4 16 13 21 21 13 21 -2 0 -10 -8 -17
-17z"/>
<path d="M8070 2501 c0 -6 4 -12 8 -15 5 -3 9 1 9 9 0 8 -4 15 -9 15 -4 0 -8
-4 -8 -9z"/>
<path d="M8120 2500 c-9 -6 -10 -10 -3 -10 6 0 15 5 18 10 8 12 4 12 -15 0z"/>
<path d="M8030 2486 c0 -8 4 -17 9 -20 5 -4 7 3 4 14 -6 23 -13 26 -13 6z"/>
<path d="M7950 2478 c0 -3 9 -6 20 -5 11 1 20 5 20 9 0 3 -9 6 -20 5 -11 -1
-20 -5 -20 -9z"/>
<path d="M8086 2462 c-3 -5 1 -9 9 -9 8 0 12 4 9 9 -3 4 -7 8 -9 8 -2 0 -6 -4
-9 -8z"/>
<path d="M7853 2445 c0 -7 6 -11 14 -8 7 3 13 6 13 8 0 2 -6 5 -13 8 -8 3 -14
-1 -14 -8z"/>
<path d="M7915 2451 c-3 -5 -2 -12 3 -15 5 -3 9 1 9 9 0 17 -3 19 -12 6z"/>
<path d="M7993 2445 c0 -8 4 -12 9 -9 5 3 6 10 3 15 -9 13 -12 11 -12 -6z"/>
<path d="M3006 2318 c3 -5 10 -6 15 -3 13 9 11 12 -6 12 -8 0 -12 -4 -9 -9z"/>
<path d="M2675 2060 c3 -5 8 -10 11 -10 2 0 4 5 4 10 0 6 -5 10 -11 10 -5 0
-7 -4 -4 -10z"/>
<path d="M2716 2043 c-6 -14 -5 -15 5 -6 7 7 10 15 7 18 -3 3 -9 -2 -12 -12z"/>
<path d="M3420 2035 c-7 -9 -11 -18 -8 -20 3 -3 11 1 18 10 7 9 11 18 8 20 -3
3 -11 -1 -18 -10z"/>
<path d="M2720 2020 c-9 -6 -10 -10 -3 -10 6 0 15 5 18 10 8 12 4 12 -15 0z"/>
<path d="M3233 2023 c4 -3 2 -12 -4 -20 -6 -7 -8 -13 -5 -13 4 0 2 -9 -4 -19
-10 -20 2 -24 27 -8 6 4 18 5 25 2 16 -6 55 31 45 42 -4 3 -7 0 -7 -8 0 -8 -7
-4 -16 9 -13 18 -19 21 -30 11 -10 -8 -14 -8 -14 0 0 6 -5 11 -12 11 -6 0 -8
-3 -5 -7z m52 -24 c-4 -5 -1 -9 5 -9 6 0 8 -5 5 -11 -4 -6 -14 -8 -22 -5 -9 4
-22 1 -29 -5 -12 -10 -14 -7 -11 12 2 13 9 24 15 24 6 0 14 3 18 7 9 10 26 -1
19 -13z"/>
<path d="M3265 2001 c-3 -5 -2 -12 3 -15 5 -3 9 1 9 9 0 17 -3 19 -12 6z"/>
<path d="M3360 2020 c-9 -6 -10 -10 -3 -10 6 0 15 5 18 10 8 12 4 12 -15 0z"/>
<path d="M2774 1995 c0 -13 4 -21 8 -19 5 3 5 10 2 16 -5 7 -1 9 9 5 9 -3 19
-1 23 6 4 7 4 9 -1 5 -4 -4 -15 -3 -24 2 -14 7 -17 4 -17 -15z"/>
<path d="M2679 1993 c-13 -16 -12 -17 4 -4 16 13 21 21 13 21 -2 0 -10 -8 -17
-17z"/>
<path d="M3530 1996 c0 -2 7 -7 16 -10 8 -3 12 -2 9 4 -6 10 -25 14 -25 6z"/>
<path d="M2827 1979 c7 -7 15 -10 18 -7 3 3 -2 9 -12 12 -14 6 -15 5 -6 -5z"/>
<path d="M2890 1976 c0 -2 8 -10 18 -17 15 -13 16 -12 3 4 -13 16 -21 21 -21
13z"/>
<path d="M2990 1950 c-9 -6 -10 -10 -3 -10 6 0 15 5 18 10 8 12 4 12 -15 0z"/>
<path d="M3386 1943 c-6 -14 -5 -15 5 -6 7 7 10 15 7 18 -3 3 -9 -2 -12 -12z"/>
<path d="M3432 1944 c-7 -8 -8 -14 -3 -14 10 0 25 19 20 25 -2 1 -10 -3 -17
-11z"/>
<path d="M3070 1946 c0 -2 9 -6 20 -9 11 -3 18 -1 14 4 -5 9 -34 13 -34 5z"/>
<path d="M3179 1948 c-9 -30 -6 -37 12 -28 23 13 25 22 2 13 -11 -4 -14 -3 -9
5 4 7 5 12 2 12 -3 0 -6 -1 -7 -2z"/>
<path d="M3050 1937 c0 -2 6 -10 14 -16 11 -9 16 -9 22 1 4 7 4 10 -1 6 -4 -4
-14 -3 -22 3 -7 6 -13 9 -13 6z"/>
<path d="M3235 1928 c25 -15 47 -19 39 -7 -3 5 -9 7 -14 4 -5 -3 -11 -1 -15 5
-3 5 -12 10 -18 10 -7 0 -3 -6 8 -12z"/>
<path d="M3353 1925 c0 -8 4 -15 9 -15 4 0 8 4 8 9 0 6 -4 12 -8 15 -5 3 -9
-1 -9 -9z"/>
<path d="M2919 1913 c-13 -16 -12 -17 4 -4 16 13 21 21 13 21 -2 0 -10 -8 -17
-17z"/>
<path d="M3313 1915 c0 -8 4 -12 9 -9 5 3 6 10 3 15 -9 13 -12 11 -12 -6z"/>
<path d="M3760 1923 c0 -2 11 -19 24 -36 33 -46 40 -69 18 -65 -9 2 -21 8 -25
13 -5 6 -7 4 -5 -4 7 -25 40 -21 77 9 19 16 37 27 40 24 3 -3 -5 -14 -18 -25
-13 -11 -22 -21 -19 -24 2 -2 16 6 31 19 15 13 24 26 21 29 -9 8 32 27 41 19
4 -4 2 3 -4 16 -10 18 -15 21 -26 12 -10 -8 -16 -7 -24 7 -9 15 -12 16 -20 4
-12 -18 -51 -22 -58 -6 -4 11 -53 18 -53 8z m50 -18 c19 -12 50 -14 56 -3 9
14 24 9 24 -9 0 -14 2 -14 20 2 11 10 20 13 20 8 0 -6 -8 -14 -17 -19 -24 -10
-39 -14 -49 -14 -3 1 -14 -9 -24 -22 -11 -13 -19 -18 -20 -12 0 5 6 16 13 23
10 10 9 11 -3 6 -10 -3 -24 5 -38 24 -20 28 -13 35 18 16z"/>
<path d="M3803 1894 c17 -21 47 -28 47 -11 0 5 -6 7 -12 4 -7 -2 -22 3 -33 12
-20 16 -20 16 -2 -5z"/>
<path d="M3865 1889 c-4 -6 -5 -12 -2 -15 2 -3 7 2 10 11 7 17 1 20 -8 4z"/>
<path d="M3005 1900 c-3 -6 1 -7 9 -4 18 7 21 14 7 14 -6 0 -13 -4 -16 -10z"/>
<path d="M3473 1890 c-1 -11 2 -20 7 -20 4 0 7 7 6 15 -3 23 -12 26 -13 5z"/>
<path d="M3536 1901 c-3 -5 1 -14 9 -21 8 -7 13 -16 10 -20 -3 -4 3 -14 13
-21 15 -13 16 -12 3 4 -7 9 -10 17 -6 17 5 0 0 9 -9 19 -17 19 -17 20 6 24 22
4 22 4 1 6 -12 0 -24 -3 -27 -8z"/>
<path d="M3113 1885 c0 -8 4 -12 9 -9 5 3 6 10 3 15 -9 13 -12 11 -12 -6z"/>
<path d="M3416 1887 c3 -10 9 -15 12 -12 3 3 0 11 -7 18 -10 9 -11 8 -5 -6z"/>
<path d="M3970 1896 c0 -2 7 -7 16 -10 8 -3 12 -2 9 4 -6 10 -25 14 -25 6z"/>
<path d="M3326 1878 c3 -5 10 -6 15 -3 13 9 11 12 -6 12 -8 0 -12 -4 -9 -9z"/>
<path d="M3513 1865 c0 -8 4 -15 9 -15 4 0 8 4 8 9 0 6 -4 12 -8 15 -5 3 -9
-1 -9 -9z"/>
<path d="M3475 1849 c-4 -6 -5 -12 -2 -15 2 -3 7 2 10 11 7 17 1 20 -8 4z"/>
<path d="M3770 1856 c0 -2 7 -7 16 -10 8 -3 12 -2 9 4 -6 10 -25 14 -25 6z"/>
<path d="M4027 1843 c3 -7 9 -13 13 -13 4 0 10 6 13 13 3 7 -3 13 -13 13 -10
0 -16 -6 -13 -13z"/>
<path d="M4107 1853 c-2 -5 -3 -14 -3 -22 1 -17 26 -28 26 -11 0 6 -4 8 -10 5
-5 -3 -7 0 -4 9 9 24 32 -4 29 -36 -2 -27 -2 -27 27 -12 16 8 32 13 37 10 7
-5 8 14 2 47 0 4 -6 7 -12 7 -5 0 -8 -4 -5 -9 12 -19 -24 -19 -47 0 -27 21
-34 23 -40 12z m63 -54 c0 -5 -4 -9 -8 -9 -5 0 -9 7 -9 15 0 8 4 12 9 9 4 -3
8 -9 8 -15z m40 17 c0 -2 -7 -7 -16 -10 -8 -3 -12 -2 -9 4 6 10 25 14 25 6z"/>
<path d="M3740 1835 c0 -8 2 -15 4 -15 2 0 6 7 10 15 3 8 1 15 -4 15 -6 0 -10
-7 -10 -15z"/>
<path d="M3716 1813 c-6 -14 -5 -15 5 -6 7 7 10 15 7 18 -3 3 -9 -2 -12 -12z"/>
<path d="M3883 1812 c-8 -5 -9 -13 -3 -22 8 -13 10 -13 10 2 0 9 6 19 13 21 6
3 8 6 2 6 -5 0 -15 -3 -22 -7z"/>
<path d="M3830 1804 c0 -6 6 -17 14 -23 11 -9 16 -9 22 1 4 7 4 10 -1 6 -4 -4
-14 0 -21 10 -7 9 -14 12 -14 6z"/>
<path d="M3910 1790 c0 -5 5 -10 10 -10 6 0 10 5 10 10 0 6 -4 10 -10 10 -5 0
-10 -4 -10 -10z"/>
<path d="M3806 1782 c-10 -17 -16 -71 -8 -76 4 -3 8 5 9 17 1 50 3 58 15 51 7
-4 8 -3 4 4 -9 14 -13 15 -20 4z"/>
<path d="M4237 1774 c-8 -13 15 -39 38 -42 14 -2 16 0 7 6 -6 4 -18 16 -25 27
-8 10 -16 14 -20 9z"/>
<path d="M3870 1758 c0 -11 12 -10 30 2 12 7 10 9 -8 7 -12 0 -22 -5 -22 -9z"/>
<path d="M3971 1767 c2 -2 13 -9 23 -17 13 -10 17 -10 12 -2 -4 6 -3 12 3 12
5 0 12 -5 14 -10 3 -6 4 -5 3 2 -1 7 -15 14 -30 15 -16 1 -27 1 -25 0z"/>
<path d="M4317 1764 c-4 -4 -2 -13 4 -21 9 -10 8 -13 -2 -13 -9 -1 -8 -4 4
-11 9 -6 14 -16 11 -22 -4 -7 -3 -8 2 -4 5 5 9 21 9 35 0 16 5 26 13 25 6 -2
12 2 12 7 0 13 -17 13 -26 -1 -5 -8 -8 -8 -13 0 -4 6 -10 8 -14 5z"/>
<path d="M3634 1742 c4 -3 14 -7 22 -8 9 -1 13 0 10 4 -4 3 -14 7 -22 8 -9 1
-13 0 -10 -4z"/>
<path d="M3908 1743 c6 -2 18 -2 25 0 6 3 1 5 -13 5 -14 0 -19 -2 -12 -5z"/>
<path d="M3943 1719 c9 -6 15 -14 12 -20 -4 -5 -1 -9 4 -9 6 0 11 4 11 8 0 12
-22 32 -34 32 -6 0 -3 -5 7 -11z"/>
<path d="M4030 1716 c0 -21 20 -30 33 -16 9 10 8 12 -7 6 -14 -5 -17 -2 -12 9
3 8 1 15 -4 15 -6 0 -10 -6 -10 -14z"/>
<path d="M3874 1706 c1 -8 5 -18 8 -22 4 -3 5 1 4 10 -1 8 -5 18 -8 22 -4 3
-5 -1 -4 -10z"/>
<path d="M3710 1699 c0 -5 5 -7 10 -4 6 3 10 8 10 11 0 2 -4 4 -10 4 -5 0 -10
-5 -10 -11z"/>
<path d="M4000 1680 c-8 -5 -10 -10 -5 -10 6 0 17 5 25 10 8 5 11 10 5 10 -5
0 -17 -5 -25 -10z"/>
<path d="M4060 1679 c-12 -9 -12 -10 3 -5 15 5 17 2 12 -17 -5 -20 -5 -20 6
-4 14 23 0 40 -21 26z"/>
<path d="M3713 1655 c0 -8 4 -12 9 -9 5 3 6 10 3 15 -9 13 -12 11 -12 -6z"/>
<path d="M4027 1650 c3 -11 9 -20 15 -20 5 0 4 9 -2 20 -6 11 -12 20 -14 20
-2 0 -2 -9 1 -20z"/>
<path d="M4090 1645 c0 -8 29 -12 39 -5 9 5 4 8 -13 8 -14 0 -26 -2 -26 -3z"/>
<path d="M3990 1636 c0 -2 8 -10 18 -17 15 -13 16 -12 3 4 -13 16 -21 21 -21
13z"/>
<path d="M3815 1620 c3 -5 8 -10 11 -10 2 0 4 5 4 10 0 6 -5 10 -11 10 -5 0
-7 -4 -4 -10z"/>
<path d="M3850 1620 c0 -5 5 -10 11 -10 5 0 7 5 4 10 -3 6 -8 10 -11 10 -2 0
-4 -4 -4 -10z"/>
<path d="M4080 1626 c0 -2 7 -7 16 -10 8 -3 12 -2 9 4 -6 10 -25 14 -25 6z"/>
<path d="M4125 1619 c-6 -8 -4 -10 5 -4 9 5 10 1 6 -16 -6 -21 -6 -22 5 -6 7
13 8 22 1 29 -6 6 -12 6 -17 -3z"/>
<path d="M4197 1607 c-3 -8 -2 -20 3 -26 5 -9 8 -4 8 13 0 29 -3 32 -11 13z"/>
<path d="M4071 1592 c-7 -14 -6 -19 4 -19 7 0 11 7 7 15 -4 11 -1 13 8 7 9 -5
11 -4 6 3 -10 16 -14 15 -25 -6z"/>
<path d="M4250 1595 c15 -18 0 -20 -20 -2 -12 10 -12 9 -2 -5 10 -13 10 -17 0
-21 -8 -3 -9 -6 -2 -6 7 -1 22 8 35 20 13 11 18 18 12 14 -7 -3 -13 -1 -13 4
0 6 -5 11 -11 11 -8 0 -8 -5 1 -15z"/>
<path d="M4150 1578 c0 -6 7 -7 16 -4 12 5 15 2 10 -9 -3 -9 -2 -13 4 -10 6 3
10 1 10 -4 0 -6 5 -11 11 -11 15 0 -18 43 -36 46 -8 1 -15 -2 -15 -8z"/>
<path d="M4010 1576 c0 -2 8 -10 18 -17 15 -13 16 -12 3 4 -13 16 -21 21 -21
13z"/>
<path d="M3894 1556 c1 -8 5 -18 8 -22 4 -3 5 1 4 10 -1 8 -5 18 -8 22 -4 3
-5 -1 -4 -10z"/>
<path d="M3987 1559 c7 -7 15 -10 18 -7 3 3 -2 9 -12 12 -14 6 -15 5 -6 -5z"/>
<path d="M4099 1553 c-13 -16 -12 -17 4 -4 9 7 17 15 17 17 0 8 -8 3 -21 -13z"/>
<path d="M4262 1561 c-11 -7 -10 -9 3 -14 9 -4 13 -3 10 2 -3 5 3 12 12 14 13
3 14 5 3 6 -8 0 -21 -3 -28 -8z"/>
<path d="M4040 1540 c-9 -6 -10 -10 -3 -10 6 0 15 5 18 10 8 12 4 12 -15 0z"/>
<path d="M4323 1533 c-13 -9 -23 -21 -23 -27 0 -6 5 -4 10 4 9 13 11 13 19 1
5 -8 20 -16 33 -18 17 -2 19 -1 8 6 -8 5 -17 8 -21 5 -4 -2 -9 3 -12 10 -3 8
-1 17 6 19 7 2 10 7 7 10 -3 2 -15 -2 -27 -10z"/>
<path d="M4360 1531 c0 -6 4 -13 10 -16 6 -3 7 1 4 9 -7 18 -14 21 -14 7z"/>
<path d="M4135 1522 c8 -9 55 -11 55 -3 0 4 -13 7 -30 7 -16 0 -28 -2 -25 -4z"/>
<path d="M4206 1522 c-3 -5 1 -9 9 -9 8 0 15 4 15 9 0 4 -4 8 -9 8 -6 0 -12
-4 -15 -8z"/>
<path d="M4237 1507 c-3 -8 1 -14 8 -14 7 0 11 6 8 14 -3 7 -6 13 -8 13 -2 0
-5 -6 -8 -13z"/>
<path d="M4393 1502 c0 -12 5 -22 9 -22 11 0 10 12 -2 30 -7 12 -9 10 -7 -8z"/>
<path d="M4276 1493 c-6 -14 -5 -15 5 -6 7 7 10 15 7 18 -3 3 -9 -2 -12 -12z"/>
<path d="M4116 1473 c-6 -14 -5 -15 5 -6 7 7 10 15 7 18 -3 3 -9 -2 -12 -12z"/>
<path d="M4211 1474 c0 -11 3 -14 6 -6 3 7 2 16 -1 19 -3 4 -6 -2 -5 -13z"/>
<path d="M4310 1479 c0 -5 5 -7 10 -4 6 3 10 8 10 11 0 2 -4 4 -10 4 -5 0 -10
-5 -10 -11z"/>
<path d="M4430 1473 c13 -20 15 -20 26 -5 7 9 10 19 7 22 -3 3 -8 -1 -10 -8
-4 -10 -8 -10 -21 0 -14 12 -14 11 -2 -9z"/>
<path d="M4336 1471 c-4 -5 3 -7 14 -4 23 6 26 13 6 13 -8 0 -17 -4 -20 -9z"/>
<path d="M4268 1463 c7 -3 16 -2 19 1 4 3 -2 6 -13 5 -11 0 -14 -3 -6 -6z"/>
<path d="M4390 1461 c8 -5 17 -8 21 -5 4 2 10 -4 13 -13 4 -15 5 -15 3 1 -1
12 -11 20 -27 23 -18 2 -21 1 -10 -6z"/>
<path d="M3967 1439 c7 -7 15 -10 18 -7 3 3 -2 9 -12 12 -14 6 -15 5 -6 -5z"/>
<path d="M4270 1443 c0 -6 8 -17 18 -24 16 -13 16 -13 2 6 -8 11 -16 22 -17
24 -2 2 -3 0 -3 -6z"/>
<path d="M4319 1448 c-7 -23 -4 -35 7 -35 9 0 11 4 4 12 -5 7 -7 15 -3 18 3 4
3 7 0 7 -4 0 -7 -1 -8 -2z"/>
<path d="M4383 1439 c9 -6 15 -14 12 -20 -4 -5 -1 -9 4 -9 6 0 11 4 11 8 0 12
-22 32 -34 32 -6 0 -3 -5 7 -11z"/>
<path d="M4035 1419 c-3 -4 2 -6 10 -5 21 3 28 13 10 13 -9 0 -18 -4 -20 -8z"/>
<path d="M4226 1402 c-3 -5 1 -9 9 -9 8 0 12 4 9 9 -3 4 -7 8 -9 8 -2 0 -6 -4
-9 -8z"/>
<path d="M4470 1401 c0 -6 4 -12 8 -15 5 -3 9 1 9 9 0 8 -4 15 -9 15 -4 0 -8
-4 -8 -9z"/>
<path d="M4510 1390 c-8 -5 -10 -10 -5 -10 6 0 17 5 25 10 8 5 11 10 5 10 -5
0 -17 -5 -25 -10z"/>
<path d="M4445 1379 c-4 -6 -13 -8 -21 -5 -8 3 -11 0 -8 -8 3 -7 11 -13 19
-13 8 0 13 3 10 5 -3 3 0 11 6 19 6 7 9 13 6 13 -3 0 -9 -5 -12 -11z"/>
<path d="M4553 1375 c0 -8 4 -12 9 -9 4 3 8 9 8 15 0 5 -4 9 -8 9 -5 0 -9 -7
-9 -15z"/>
<path d="M4820 1379 c0 -5 5 -7 10 -4 6 3 10 8 10 11 0 2 -4 4 -10 4 -5 0 -10
-5 -10 -11z"/>
<path d="M4379 1378 c-5 -18 -6 -38 -1 -34 7 8 12 36 6 36 -2 0 -4 -1 -5 -2z"/>
<path d="M4601 1372 c-1 -8 -6 -10 -13 -6 -10 5 -10 4 -1 -6 15 -16 28 -8 20
12 -4 11 -6 11 -6 0z"/>
<path d="M4630 1371 c0 -6 4 -13 10 -16 6 -3 7 1 4 9 -7 18 -14 21 -14 7z"/>
<path d="M4735 1363 c5 -18 3 -22 -9 -17 -9 3 -16 2 -16 -4 0 -11 25 -10 36 0
3 4 1 15 -6 25 -10 16 -10 16 -5 -4z"/>
<path d="M4765 1356 c16 -25 35 -27 72 -8 10 5 24 7 31 5 6 -3 12 -1 12 5 0
11 -32 12 -46 0 -7 -5 -22 -11 -34 -13 -16 -3 -20 0 -16 11 3 9 1 12 -4 9 -6
-3 -10 -1 -10 4 0 6 -5 11 -10 11 -6 0 -3 -11 5 -24z"/>
<path d="M5245 1370 c-3 -5 0 -7 8 -4 7 2 14 -1 15 -8 1 -19 11 -60 15 -65 3
-2 4 13 3 34 -1 45 -25 70 -41 43z"/>
<path d="M4070 1366 c0 -2 7 -7 16 -10 8 -3 12 -2 9 4 -6 10 -25 14 -25 6z"/>
<path d="M4686 1355 c4 -8 8 -15 10 -15 2 0 4 7 4 15 0 8 -4 15 -10 15 -5 0
-7 -7 -4 -15z"/>
<path d="M5312 1356 c7 -8 15 -12 17 -11 5 6 -10 25 -20 25 -5 0 -4 -6 3 -14z"/>
<path d="M4216 1342 c-3 -5 1 -9 9 -9 8 0 12 4 9 9 -3 4 -7 8 -9 8 -2 0 -6 -4
-9 -8z"/>
<path d="M4470 1338 c0 -4 4 -8 9 -8 6 0 12 4 15 8 3 5 -1 9 -9 9 -8 0 -15 -4
-15 -9z"/>
<path d="M5295 1340 c3 -5 8 -10 11 -10 2 0 4 5 4 10 0 6 -5 10 -11 10 -5 0
-7 -4 -4 -10z"/>
<path d="M4545 1325 c11 -9 19 -19 18 -23 -1 -4 1 -8 3 -9 2 -2 2 0 -1 4 -3 3
1 13 7 22 7 9 9 13 4 9 -5 -4 -18 -3 -30 3 -21 10 -21 10 -1 -6z"/>
<path d="M4850 1325 c0 -8 4 -15 10 -15 5 0 7 7 4 15 -4 8 -8 15 -10 15 -2 0
-4 -7 -4 -15z"/>
<path d="M5340 1336 c0 -2 7 -6 15 -10 8 -3 15 -1 15 4 0 6 -7 10 -15 10 -8 0
-15 -2 -15 -4z"/>
<path d="M4180 1320 c-9 -6 -10 -10 -3 -10 6 0 15 5 18 10 8 12 4 12 -15 0z"/>
<path d="M4254 1316 c1 -8 5 -18 8 -22 4 -3 5 1 4 10 -1 8 -5 18 -8 22 -4 3
-5 -1 -4 -10z"/>
<path d="M4513 1313 c0 -11 7 -20 14 -20 10 0 10 4 1 16 -7 9 -13 18 -15 20
-1 2 -1 -5 0 -16z"/>
<path d="M4624 1310 c0 -13 4 -16 10 -10 7 7 7 13 0 20 -6 6 -10 3 -10 -10z"/>
<path d="M4673 1315 c0 -8 6 -16 13 -19 7 -3 10 2 7 15 -6 22 -20 26 -20 4z"/>
<path d="M4750 1319 c0 -5 5 -7 10 -4 6 3 10 8 10 11 0 2 -4 4 -10 4 -5 0 -10
-5 -10 -11z"/>
<path d="M4820 1320 c-9 -6 -10 -10 -3 -10 6 0 15 5 18 10 8 12 4 12 -15 0z"/>
<path d="M4916 1315 c4 -8 8 -15 10 -15 2 0 4 7 4 15 0 8 -4 15 -10 15 -5 0
-7 -7 -4 -15z"/>
<path d="M4949 1313 c-11 -15 -11 -16 1 -5 18 15 31 16 28 0 -2 -7 8 -14 22
-15 24 -2 24 -2 2 5 -13 4 -23 11 -22 17 3 17 -17 16 -31 -2z"/>
<path d="M5195 1320 c-13 -6 -15 -9 -5 -9 8 0 22 4 30 9 18 12 2 12 -25 0z"/>
<path d="M5310 1320 c-13 -8 -12 -10 3 -10 9 0 17 5 17 10 0 12 -1 12 -20 0z"/>
<path d="M4591 1307 c-8 -10 -7 -14 2 -14 8 0 14 6 14 14 0 7 -1 13 -2 13 -2
0 -8 -6 -14 -13z"/>
<path d="M4790 1311 c0 -10 19 -25 25 -20 1 2 -3 10 -11 17 -8 7 -14 8 -14 3z"/>
<path d="M4872 1304 c-11 -12 -9 -13 7 -11 11 2 24 7 28 12 5 4 3 5 -4 2 -6
-4 -13 -3 -15 2 -1 5 -9 3 -16 -5z"/>
<path d="M5106 1311 c-4 -5 3 -7 14 -4 23 6 26 13 6 13 -8 0 -17 -4 -20 -9z"/>
<path d="M5150 1300 c0 -5 5 -10 10 -10 6 0 10 5 10 10 0 6 -4 10 -10 10 -5 0
-10 -4 -10 -10z"/>
<path d="M5215 1300 c-3 -5 0 -12 6 -16 7 -4 9 -3 5 4 -4 7 2 10 14 9 11 -1
19 -6 16 -12 -2 -7 2 -12 9 -12 10 0 11 5 5 16 -9 18 -46 25 -55 11z"/>
<path d="M5335 1300 c-3 -6 1 -7 9 -4 18 7 21 14 7 14 -6 0 -13 -4 -16 -10z"/>
<path d="M5370 1302 c0 -5 7 -9 15 -9 8 0 12 4 9 9 -3 4 -9 8 -15 8 -5 0 -9
-4 -9 -8z"/>
<path d="M4353 1285 c0 -8 4 -15 9 -15 4 0 8 4 8 9 0 6 -4 12 -8 15 -5 3 -9
-1 -9 -9z"/>
<path d="M4748 1293 c6 -2 10 -8 8 -12 -3 -4 4 -8 15 -8 10 -1 19 3 19 8 0 6
-4 8 -9 4 -5 -3 -12 -1 -16 5 -3 5 -12 10 -18 9 -9 0 -8 -2 1 -6z"/>
<path d="M4310 1281 c0 -6 4 -12 8 -15 5 -3 9 1 9 9 0 8 -4 15 -9 15 -4 0 -8
-4 -8 -9z"/>
<path d="M4393 1273 c0 -9 4 -10 14 -2 7 6 13 12 13 14 0 1 -6 2 -13 2 -8 0
-14 -6 -14 -14z"/>
<path d="M4931 1285 c4 -3 19 -8 35 -11 16 -3 26 -2 23 1 -4 3 -19 8 -35 11
-16 3 -26 2 -23 -1z"/>
<path d="M5070 1281 c0 -6 4 -13 10 -16 6 -3 7 1 4 9 -7 18 -14 21 -14 7z"/>
<path d="M5118 1283 c7 -3 16 -2 19 1 4 3 -2 6 -13 5 -11 0 -14 -3 -6 -6z"/>
<path d="M5164 1274 c-18 -15 -18 -15 3 -5 28 14 36 14 27 -1 -4 -7 -3 -8 5
-4 11 7 6 26 -8 26 -4 0 -16 -7 -27 -16z"/>
<path d="M5305 1280 c3 -5 11 -10 16 -10 6 0 7 5 4 10 -3 6 -11 10 -16 10 -6
0 -7 -4 -4 -10z"/>
<path d="M4479 1253 c-13 -16 -12 -17 4 -4 9 7 17 15 17 17 0 8 -8 3 -21 -13z"/>
<path d="M4630 1256 c7 -7 13 -7 20 0 6 6 3 10 -10 10 -13 0 -16 -4 -10 -10z"/>
<path d="M4830 1250 c4 -8 9 -19 10 -25 3 -19 9 -17 6 2 -2 10 0 23 5 28 5 7
1 11 -11 11 -13 0 -16 -4 -10 -16z"/>
<path d="M4925 1262 c-13 -9 -17 -32 -6 -32 5 0 11 9 14 20 6 22 6 22 -8 12z"/>
<path d="M5003 1262 c-7 -4 -9 -13 -4 -21 6 -9 10 -7 14 8 3 12 4 21 4 21 -1
0 -7 -4 -14 -8z"/>
<path d="M5044 1259 c-3 -6 1 -17 10 -25 9 -8 11 -9 6 -2 -14 16 -13 31 2 22
7 -4 8 -3 4 4 -9 15 -13 15 -22 1z"/>
<path d="M5236 1258 c5 -7 2 -9 -9 -5 -11 4 -14 2 -10 -9 4 -11 9 -12 19 -3
12 10 11 29 -2 29 -3 0 -2 -5 2 -12z"/>
<path d="M4742 1244 c10 -10 20 -16 22 -13 3 3 -5 11 -17 18 -21 13 -21 12 -5
-5z"/>
<path d="M4436 1242 c-3 -5 1 -9 9 -9 8 0 12 4 9 9 -3 4 -7 8 -9 8 -2 0 -6 -4
-9 -8z"/>
<path d="M5280 1240 c-9 -6 -10 -10 -3 -10 6 0 15 5 18 10 8 12 4 12 -15 0z"/>
<path d="M4716 1227 c3 -10 9 -15 12 -12 3 3 0 11 -7 18 -10 9 -11 8 -5 -6z"/>
<path d="M5307 1227 c-3 -7 3 -13 14 -13 13 0 15 3 7 13 -6 7 -12 13 -13 13
-2 0 -5 -6 -8 -13z"/>
<path d="M4376 1218 c3 -5 10 -6 15 -3 13 9 11 12 -6 12 -8 0 -12 -4 -9 -9z"/>
<path d="M4790 1221 c0 -6 4 -13 10 -16 6 -3 7 1 4 9 -7 18 -14 21 -14 7z"/>
<path d="M4870 1222 c0 -5 7 -9 15 -9 8 0 12 4 9 9 -3 4 -9 8 -15 8 -5 0 -9
-4 -9 -8z"/>
<path d="M4945 1220 c-3 -6 1 -7 9 -4 18 7 21 14 7 14 -6 0 -13 -4 -16 -10z"/>
<path d="M5360 1220 c-9 -6 -10 -10 -3 -10 6 0 15 5 18 10 8 12 4 12 -15 0z"/>
<path d="M4971 1207 c-8 -10 -7 -14 2 -14 8 0 14 6 14 14 0 7 -1 13 -2 13 -2
0 -8 -6 -14 -13z"/>
<path d="M5175 1210 c-4 -6 -11 -7 -17 -4 -7 4 -8 2 -4 -5 6 -9 11 -9 22 0 14
11 18 19 10 19 -3 0 -8 -5 -11 -10z"/>
<path d="M5120 1206 c0 -2 8 -10 18 -17 15 -13 16 -12 3 4 -13 16 -21 21 -21
13z"/>
<path d="M4693 1185 c0 -8 4 -12 9 -9 5 3 6 10 3 15 -9 13 -12 11 -12 -6z"/>
<path d="M5190 1181 c0 -6 4 -13 10 -16 6 -3 7 1 4 9 -7 18 -14 21 -14 7z"/>
<path d="M5260 1185 c0 -2 6 -8 13 -14 10 -8 14 -7 14 2 0 8 -6 14 -14 14 -7
0 -13 -1 -13 -2z"/>
<path d="M5474 1164 c-18 -14 -18 -15 4 -4 12 6 22 13 22 15 0 8 -5 6 -26 -11z"/>
<path d="M4866 1162 c-3 -5 1 -9 9 -9 8 0 12 4 9 9 -3 4 -7 8 -9 8 -2 0 -6 -4
-9 -8z"/>
<path d="M4900 1165 c0 -2 6 -8 13 -14 10 -8 14 -7 14 2 0 8 -6 14 -14 14 -7
0 -13 -1 -13 -2z"/>
<path d="M5065 1160 c-3 -6 1 -7 9 -4 18 7 21 14 7 14 -6 0 -13 -4 -16 -10z"/>
<path d="M5113 1153 c0 -9 4 -10 14 -2 7 6 13 12 13 14 0 1 -6 2 -13 2 -8 0
-14 -6 -14 -14z"/>
<path d="M5335 1160 c3 -5 8 -10 11 -10 2 0 4 5 4 10 0 6 -5 10 -11 10 -5 0
-7 -4 -4 -10z"/>
<path d="M5505 1160 c-3 -6 1 -7 9 -4 18 7 21 14 7 14 -6 0 -13 -4 -16 -10z"/>
<path d="M5695 1160 c-3 -5 -1 -10 4 -10 6 0 11 5 11 10 0 6 -2 10 -4 10 -3 0
-8 -4 -11 -10z"/>
<path d="M4676 1138 c3 -4 11 -5 19 -1 21 7 19 12 -4 10 -11 0 -18 -5 -15 -9z"/>
<path d="M4873 1125 c0 -8 4 -12 9 -9 5 3 6 10 3 15 -9 13 -12 11 -12 -6z"/>
<path d="M4240 1126 c0 -2 8 -10 18 -17 15 -13 16 -12 3 4 -13 16 -21 21 -21
13z"/>
<path d="M5373 1105 c0 -8 4 -12 9 -9 5 3 6 10 3 15 -9 13 -12 11 -12 -6z"/>
<path d="M4975 1100 c3 -5 8 -10 11 -10 2 0 4 5 4 10 0 6 -5 10 -11 10 -5 0
-7 -4 -4 -10z"/>
<path d="M5175 1100 c-3 -5 -1 -10 4 -10 6 0 11 5 11 10 0 6 -2 10 -4 10 -3 0
-8 -4 -11 -10z"/>
<path d="M5406 1102 c-3 -5 1 -9 9 -9 8 0 12 4 9 9 -3 4 -7 8 -9 8 -2 0 -6 -4
-9 -8z"/>
<path d="M5454 1102 c4 -3 14 -7 22 -8 9 -1 13 0 10 4 -4 3 -14 7 -22 8 -9 1
-13 0 -10 -4z"/>
<path d="M4670 1096 c0 -2 8 -10 18 -17 15 -13 16 -12 3 4 -13 16 -21 21 -21
13z"/>
<path d="M5509 1083 c-13 -16 -12 -17 4 -4 9 7 17 15 17 17 0 8 -8 3 -21 -13z"/>
<path d="M4816 1082 c-3 -5 1 -9 9 -9 8 0 12 4 9 9 -3 4 -7 8 -9 8 -2 0 -6 -4
-9 -8z"/>
<path d="M5090 1080 c0 -5 5 -10 11 -10 5 0 7 5 4 10 -3 6 -8 10 -11 10 -2 0
-4 -4 -4 -10z"/>
<path d="M5155 1049 c-4 -6 -5 -12 -2 -15 2 -3 7 2 10 11 7 17 1 20 -8 4z"/>
<path d="M5347 1039 c7 -7 15 -10 18 -7 3 3 -2 9 -12 12 -14 6 -15 5 -6 -5z"/>
<path d="M5076 958 c3 -5 10 -6 15 -3 13 9 11 12 -6 12 -8 0 -12 -4 -9 -9z"/>
<path d="M5790 886 c0 -2 7 -7 16 -10 8 -3 12 -2 9 4 -6 10 -25 14 -25 6z"/>
</g>
</svg>
